<svg xmlns="http://www.w3.org/2000/svg" data-name="line expand" viewBox="0 0 48 48"><path fill="#1a1a1a" d="M12.633 38.824H2.245c-.558 0-.745 0-.745-1.011V35.408a.75.75 0 0 0-1.5 0v2.405a2.142 2.142 0 0 0 2.245 2.511H12.633a.75.75 0 0 0 0-1.5zM.75 33.047a.75.75 0 0 0 .75-.75V7.505l22.7.039V20.049a.75.75 0 0 0 1.5 0V7.544A1.53 1.53 0 0 0 24.185 6H2.136l3.43-2.9h21.8a1.2 1.2 0 0 1 1.2 1.2V19.52a.75.75 0 0 0 1.5 0V4.3a2.7 2.7 0 0 0-2.7-2.7H5.292a.749.749 0 0 0-.484.177L.353 5.551a1.116 1.116 0 0 0-.242.377A.736.736 0 0 0 0 6.3v26A.75.75 0 0 0 .75 33.047z"/><path fill="#1a1a1a" d="M27.142 19.781a.75.75 0 0 0 .75-.75V6.04a2.234 2.234 0 0 0-2.227-2.231L6.919 3.77h0a.75.75 0 0 0 0 1.5l18.747.039a.732.732 0 0 1 .73.731V19.031A.75.75 0 0 0 27.142 19.781zM37.472 34.059a.75.75 0 0 0-.75.75v6.236a.9.9 0 0 1-.1.421C36.2 42.271 34.2 44.9 26.2 44.9s-10-2.626-10.427-3.432a.9.9 0 0 1-.1-.42V35.127a.75.75 0 0 0-1.5 0v5.918a2.416 2.416 0 0 0 .268 1.119C15.115 43.437 17.6 46.4 26.2 46.4s11.084-2.96 11.753-4.232a2.4 2.4 0 0 0 .27-1.12V34.809A.75.75 0 0 0 37.472 34.059z"/><path fill="#1a1a1a" d="M47.487,27.639,27.645,21.011a.732.732,0,0,0-.467,0L4.827,28.177A.751.751,0,0,0,4.816,29.6l20.9,7.064a.76.76,0,0,0,.24.04.751.751,0,0,0,.252-.044l15.341-5.478v3.6a2.522,2.522,0,0,0-1.793,2.406V38.7a2.528,2.528,0,0,0,5.056,0V37.186a2.524,2.524,0,0,0-1.763-2.4v-4.14L47.5,29.057a.75.75,0,0,0-.015-1.418ZM43.308,38.7a1.028,1.028,0,0,1-2.056,0V37.186a1.028,1.028,0,1,1,2.056,0ZM42.192,29.36,26.279,27.643a.75.75,0,1,0-.16,1.491l12.829,1.384-13,4.644L7.454,28.91l19.948-6.4,17.551,5.863Z"/></svg>