<svg xmlns="http://www.w3.org/2000/svg" data-name="Layer 1" viewBox="0 0 512 512"><path d="M498.13,143.91a44.86,44.86,0,0,0-25-11.22,14.85,14.85,0,0,0-4.19-8.39l-2.23-2.23,25.45-25.45a27.4,27.4,0,0,0-38.75-38.75L428,83.32,402.52,57.87a27.4,27.4,0,0,0-38.75,38.75l25.44,25.45-27.1,27.1a7.37,7.37,0,0,0-.68.8l-.13.17a8.33,8.33,0,0,0-.55.9v0a8.29,8.29,0,0,0-.41,1,.78.78,0,0,1-.05.14,9.47,9.47,0,0,0-.25,1s0,0,0,.06l-4.94,29.88a10.29,10.29,0,0,0,10.15,12,10.46,10.46,0,0,0,1.67-.14L396.78,190h.06a8.76,8.76,0,0,0,1-.25l.15-.06a6.71,6.71,0,0,0,1-.4h0a8.33,8.33,0,0,0,.9-.55l.17-.13a7.37,7.37,0,0,0,.8-.68l27.1-27.1,2.23,2.23a14.84,14.84,0,0,0,9.06,4.28c4,14.79,10.44,23.55,19.54,26.68,4.53,1.56,8.48,1.19,11.65.9a19.49,19.49,0,0,1,7.87.36c5.16,1.46,9.86,5.5,14,12a7.5,7.5,0,0,0,6.34,3.5h.23a7.5,7.5,0,0,0,6.35-3.89C517.11,185.14,514.14,158.66,498.13,143.91ZM464,68.48A12.4,12.4,0,0,1,481.55,86l-2,2L462,70.49ZM451.4,81.09l17.53,17.54L456.1,111.46,438.57,93.93Zm-80.44,98,1.48-9,7.49,7.49Zm24.6-7.07L378,154.47l21.8-21.8,17.53,17.54Zm45.17-19.63-7.46-7.46h0L374.38,86a12.4,12.4,0,0,1,17.53-17.53l30.74,30.75h0l28.13,28.13h0l7.46,7.46Zm55.58,36.37a34.51,34.51,0,0,0-13.93-7.91,34.13,34.13,0,0,0-13.33-.86c-2.57.24-4,.34-5.39-.14-4.28-1.47-8-8.05-10.5-18.67l13.9-13.9c5.31.14,14.11,1.43,20.91,7.69C496.51,162.81,499.46,175.9,496.31,188.74Zm-388.8-68.28H42.41a7.5,7.5,0,1,0,0,15h65.1a7.5,7.5,0,1,0,0-15ZM256,101.35a26.64,26.64,0,1,0-26.63-26.63A26.66,26.66,0,0,0,256,101.35Zm0-38.27a11.64,11.64,0,1,1-11.63,11.64A11.64,11.64,0,0,1,256,63.08Zm-69.75,40.25,10.09,17.49a12.87,12.87,0,0,0,15.91,5.47l8.4-3.4A59.83,59.83,0,0,0,232,129.43l1.25,9a12.87,12.87,0,0,0,12.7,11h20.18a12.87,12.87,0,0,0,12.7-11l1.25-9a59.83,59.83,0,0,0,11.31-6.54l8.4,3.4a12.88,12.88,0,0,0,15.91-5.47l10.09-17.49a12.87,12.87,0,0,0-3.21-16.51l-7.14-5.58a61,61,0,0,0,0-13l7.14-5.58a12.87,12.87,0,0,0,3.21-16.51L315.66,28.62a12.88,12.88,0,0,0-15.91-5.48l-8.4,3.4A59,59,0,0,0,280,20l-1.25-9a12.88,12.88,0,0,0-12.7-11H245.91a12.88,12.88,0,0,0-12.7,11L232,20a59,59,0,0,0-11.31,6.53l-8.4-3.4a12.87,12.87,0,0,0-15.91,5.48L186.25,46.1a12.87,12.87,0,0,0,3.21,16.51l7.14,5.58a61,61,0,0,0,0,13l-7.14,5.58A12.87,12.87,0,0,0,186.25,103.33Zm25.37-22.8a45.88,45.88,0,0,1,0-11.63,12.86,12.86,0,0,0-4.81-11.77L200.18,52l8.2-14.2,7.8,3.15a12.87,12.87,0,0,0,12.61-1.72,44.68,44.68,0,0,1,10.06-5.82,12.87,12.87,0,0,0,7.79-10L247.8,15h16.4l1.16,8.32a12.87,12.87,0,0,0,7.79,10,44.68,44.68,0,0,1,10.06,5.82,12.87,12.87,0,0,0,12.61,1.72l7.8-3.15,8.2,14.2-6.63,5.17a12.86,12.86,0,0,0-4.81,11.77,46,46,0,0,1,0,11.64,12.85,12.85,0,0,0,4.81,11.76l6.63,5.18-8.2,14.19-7.79-3.15a12.89,12.89,0,0,0-12.62,1.73,44.48,44.48,0,0,1-10.06,5.81,12.89,12.89,0,0,0-7.79,10.06l-1.16,8.31H247.8l-1.16-8.31a12.89,12.89,0,0,0-7.79-10.06,44.48,44.48,0,0,1-10.06-5.81,12.88,12.88,0,0,0-12.61-1.73l-7.8,3.15-8.2-14.19,6.63-5.18A12.86,12.86,0,0,0,211.62,80.53ZM107.51,150.46H42.41a7.5,7.5,0,0,0,0,15h65.1a7.5,7.5,0,1,0,0-15Zm127.9,160a7.5,7.5,0,0,0,2.13,10.39,33.5,33.5,0,0,0,17.9,5.56H256a34,34,0,0,0,18.53-5.57,7.5,7.5,0,0,0-8.26-12.52,18.51,18.51,0,0,1-20.49,0A7.5,7.5,0,0,0,235.41,310.48Zm-5.61-33.27a7.5,7.5,0,0,0,7.5-7.5V262.1a7.5,7.5,0,1,0-15,0v7.61A7.5,7.5,0,0,0,229.8,277.21ZM414.75,430c-.06-.62-.13-1.25-.21-1.81-3.27-26.4-23.15-48.49-49.45-55l-.36-.08-30.19-5.86a12.41,12.41,0,0,0-2.28-1.92l-18.44-11.89a12.58,12.58,0,0,0-10.33-1.46l-2.28-3.37a63.25,63.25,0,0,0,22.41-48.3V245.15a17.37,17.37,0,0,0-2.53-9,28.77,28.77,0,0,0,2.53-11.76V180.31a11.45,11.45,0,0,0-11.43-11.43H219.94c-18.06,0-31.56,17.57-31.56,33.28v98.22a63.28,63.28,0,0,0,22.87,48.7l-2.38,3.59a12.53,12.53,0,0,0-11.16,2.54l-12.85,10.87a3.31,3.31,0,0,0-.27.26l-37.24,6.83a3.12,3.12,0,0,0-.44.09c-26.3,6.48-46.18,28.57-49.44,54.91-.09.62-.16,1.25-.22,1.85l-1.76,18.27a5.79,5.79,0,0,0,0,.72v31.91A31.11,31.11,0,0,0,126.53,512H385.47a31.11,31.11,0,0,0,31.08-31.08V449a5.79,5.79,0,0,0,0-.72ZM307.28,367.15l14.62,9.42-34.19,46.18-20.66-19.89ZM256,392.59l-35-31.06,2.83-4.27a63,63,0,0,0,28,6.51h8.46A63,63,0,0,0,288.71,357l2.79,4.12ZM203.38,202.16c0-8.28,7.39-18.28,16.56-18.28h88.68v40.5a13.44,13.44,0,0,1-.44,3.4,17.53,17.53,0,0,0-2.06-.13H205.88a17.21,17.21,0,0,0-2.5.2Zm0,98.22V245.15a2.5,2.5,0,0,1,2.5-2.5H306.12a2.5,2.5,0,0,1,2.5,2.5v55.23a48.45,48.45,0,0,1-48.39,48.39h-8.46A48.45,48.45,0,0,1,203.38,300.38Zm2.36,67.68L245,402.86l-20.13,19.38-28.66-46.1Zm20.75,56.8Zm175.06,56.06A16.09,16.09,0,0,1,385.47,497H363V467.73a7.5,7.5,0,0,0-15,0V497H164V467.73a7.5,7.5,0,0,0-15,0V497H126.53a16.09,16.09,0,0,1-16.08-16.08V449.37l1.74-17.93c0-.43.09-.87.15-1.36,2.51-20.2,17.74-37.14,37.94-42.2L182.21,382l.11.21,31.43,50.55h0a12.46,12.46,0,0,0,9.07,5.81,13.6,13.6,0,0,0,1.56.09,12.45,12.45,0,0,0,8.65-3.49l23-22.12,23.35,22.46A12.46,12.46,0,0,0,288,439c.35,0,.7,0,1.05,0a12.5,12.5,0,0,0,9-5l37.46-50.61c.12-.16.22-.33.33-.5l25.81,5c20.22,5.05,35.47,22,38,42.27.05.43.1.87.15,1.33l1.73,17.9ZM256,467.73a7.5,7.5,0,1,0,7.5,7.5A7.5,7.5,0,0,0,256,467.73Zm-106.08-293V108a18,18,0,0,0-18-18H18A18,18,0,0,0,0,108v66.8a18,18,0,0,0,18,18H44a2.93,2.93,0,0,1,2.1.88l13.8,13.8a11.43,11.43,0,0,0,16.17,0l13.8-13.8a2.93,2.93,0,0,1,2.1-.88h40A18,18,0,0,0,149.92,174.78ZM79.28,183,68,194.31,56.73,183A17.85,17.85,0,0,0,44,177.76H18a3,3,0,0,1-3-3V108a3,3,0,0,1,3-3h114a3,3,0,0,1,3,3v66.8a3,3,0,0,1-3,3H92A17.85,17.85,0,0,0,79.28,183ZM256,432.8a7.5,7.5,0,1,0,7.5,7.5A7.5,7.5,0,0,0,256,432.8Zm26.2-155.59a7.5,7.5,0,0,0,7.5-7.5V262.1a7.5,7.5,0,1,0-15,0v7.61A7.5,7.5,0,0,0,282.2,277.21Z"/></svg>