<svg xmlns="http://www.w3.org/2000/svg" width="168" height="168" data-name="Layer 1"><path fill="#2d4356" d="M49.833 19.167a3 3 0 1 0-3-3 3.003 3.003 0 0 0 3 3zm0-4.5a1.5 1.5 0 1 1-1.5 1.5 1.501 1.501 0 0 1 1.5-1.5zM134.305 57.5a2 2 0 1 0 2 2 2.002 2.002 0 0 0-2-2zm0 3a1 1 0 1 1 1-1 1.001 1.001 0 0 1-1 1zm-17.972-39.333a2 2 0 1 0 2 2 2.002 2.002 0 0 0-2-2zm0 3a1 1 0 1 1 1-1 1.001 1.001 0 0 1-1 1zM137.667 2.5a2 2 0 1 0 2 2 2.002 2.002 0 0 0-2-2zm0 3a1 1 0 1 1 1-1 1.001 1.001 0 0 1-1 1zM12 9.167a2 2 0 1 0-2 2 2.002 2.002 0 0 0 2-2zm-3 0a1 1 0 1 1 1 1 1.001 1.001 0 0 1-1-1z"/><path fill="#0bceb2" d="m8.888 48.511 1.487-1.955-.939-.532-.955 2.19H8.45l-.97-2.175-.955.548 1.471 1.909v.031l-2.301-.297v1.064l2.316-.297v.031l-1.486 1.908.891.564 1.018-2.206h.031l.939 2.19.986-.563-1.502-1.878v-.031l2.362.282V48.23l-2.362.312v-.031zM85.081 5.635l-.856 1.099.513.325.587-1.271h.017l.541 1.262.568-.324-.865-1.082v-.018l1.36.162v-.612l-1.36.18v-.018l.856-1.126-.541-.307-.549 1.262h-.019l-.558-1.253-.55.316.847 1.099v.018l-1.325-.171v.612l1.334-.171v.018zM47.382 56.892v-1.043l-2.317.307v-.031l1.459-1.918-.921-.522-.936 2.148h-.032l-.951-2.133-.937.538 1.444 1.872v.031l-2.257-.292v1.043l2.272-.291v.031l-1.459 1.872.875.553.998-2.165h.03l.921 2.149.968-.552-1.474-1.842v-.031l2.317.276zM162.677 40.752l1.258-1.655-.794-.45-.808 1.853h-.027l-.82-1.84-.808.463 1.245 1.616v.026l-1.947-.251v.9l1.96-.252v.027l-1.258 1.615.754.476.861-1.866h.026l.795 1.853.834-.476-1.271-1.589v-.027l1.999.239v-.9l-1.999.264v-.026z"/><circle cx="2" cy="149.5" r="2" fill="#2d4356"/><path fill="#2d4356" d="M11 147.5H8a2 2 0 0 0 0 4h3a2 2 0 0 0 0-4zm149 0h-3a2 2 0 0 0 0 4h3a2 2 0 0 0 0-4z"/><circle cx="166" cy="149.5" r="2" fill="#2d4356"/><path fill="#0bceb2" d="M118.154 155.5h-8.308a2.006 2.006 0 0 0 0 4h8.308a2.006 2.006 0 0 0 0-4zm-60 0h-8.308a2.006 2.006 0 0 0 0 4h8.308a2.006 2.006 0 0 0 0-4zm45.846 0H64a2 2 0 0 0 0 4h15.94v2H72a2 2 0 0 0 0 4h25a2 2 0 0 0 0-4h-8.94v-2H104a2 2 0 0 0 0-4z"/><path fill="#2d4356" d="M150.721 147.5H117.82l4.898-12.375a4.043 4.043 0 0 0-.426-3.775L94.889 91.151l10.315-16.129c7.836-13.775 7.309-24.654 4.478-32.37a33.153 33.153 0 0 0-8.111-12.306c-.463-.45-.917-.909-1.416-1.32A23.62 23.62 0 0 0 84.877 23.5h-1.753a23.616 23.616 0 0 0-15.28 5.526 32.374 32.374 0 0 0-9.22 12.825q-.158.399-.306.801c-2.83 7.716-3.358 18.595 4.478 32.37l10.315 16.13L45.71 131.35a4.043 4.043 0 0 0-.426 3.775l4.898 12.375H17.279a2.017 2.017 0 1 0 0 4H150.72a2.017 2.017 0 1 0 0-4ZM105.926 44.03c3.193 8.701 1.797 18.433-4.149 28.926l-9.338 14.602-6.019-8.83L98.3 61.302a46.511 46.511 0 0 0 7.234-18.279q.203.493.392 1.008ZM70.388 32.114A20.504 20.504 0 0 1 83.124 27.5h1.753a20.23 20.23 0 0 1 12.628 4.525l.107.089a10.698 10.698 0 0 1 2.984 4.07 41.568 41.568 0 0 0-15.575-2.817 47.262 47.262 0 0 0-17.848 3.387 10.935 10.935 0 0 1 3.215-4.64Zm14.633 5.253c6.151 0 12.117 1.255 16.706 3.775-.993 9.794-6.714 17.88-6.714 17.88L84 75.178 72.987 59.022a42.4 42.4 0 0 1-6.674-17.459 42.247 42.247 0 0 1 18.708-4.196Zm-18.798 35.59c-5.946-10.494-7.342-20.226-4.15-28.927q.19-.515.393-1.008A46.512 46.512 0 0 0 69.7 61.301l49.285 72.302.004.038.009.012-5.337 13.48Zm-17.208 60.646 26.44-38.788 6.17 9.65-27.287 42.669-5.336-13.481ZM84 108.177l25.148 39.323H58.852Z"/></svg>