<svg xmlns="http://www.w3.org/2000/svg" xmlns:xlink="http://www.w3.org/1999/xlink" height="241.9" preserveAspectRatio="xMidYMid meet" version="1.0" viewBox="24.4 143.9 451.1 241.9" width="451.1" zoomAndPan="magnify"><g id="change1_1"><path d="M474.18,253.93c1.37-20.89-34.73-38.96-55.15-40.37c-1.85-0.13-3.69-0.11-5.49,0.04 c-0.71-18.69-15.11-34.2-33.76-35.49c-5.56-0.38-10.91,0.54-15.76,2.51c-10.9-15.59-28.28-26.26-48.44-27.65 c-31.57-2.17-59.38,19.14-67.1,49.33c-4.91-2.57-10.4-4.18-16.25-4.58c-23.1-1.59-43.09,16.27-44.65,39.9 c-1.55,23.63,15.91,44.07,39.02,45.66c2.69,0.19,5.34,0.1,7.92-0.22c1.56,18.4,16.04,33.39,34.61,34.67 c6.89,0.47,13.47-1,19.22-3.96c6.67,10.73,18.07,18.18,31.43,19.1c17.89,1.23,33.84-9.63,40.21-25.76 c5.44,4.73,12.36,7.79,20.04,8.32c16.77,1.15,31.54-10.13,35.7-26.14C435.43,289.74,472.84,274.25,474.18,253.93z" fill="#fbe6ef"/></g><g id="change1_2"><path d="M279.1,242.11c1.31-19.89-13.4-37.1-32.84-38.44c-1.77-0.12-3.51-0.11-5.22,0.03 c-0.67-17.8-14.39-32.57-32.15-33.79c-5.29-0.36-10.38,0.51-15.01,2.39c-10.38-14.85-26.93-25.01-46.13-26.33 c-30.06-2.07-56.54,18.22-63.89,46.97c-4.68-2.44-9.9-3.98-15.47-4.36c-22-1.51-41.03,15.5-42.51,37.99 c-1.48,22.5,15.15,41.96,37.15,43.48c2.56,0.18,5.08,0.1,7.54-0.21c1.49,17.52,15.27,31.79,32.96,33.01 c6.56,0.45,12.83-0.95,18.3-3.77c6.35,10.22,17.21,17.31,29.92,18.19c17.03,1.17,32.22-9.17,38.29-24.53 c5.18,4.51,11.77,7.42,19.08,7.92c15.96,1.1,30.03-9.65,33.99-24.89C261.88,276.2,277.83,261.45,279.1,242.11z" fill="#fbe6ef"/></g><g id="change2_1"><path d="M382.14,327.8c6.4-22.38-6.53-45.94-28.88-52.63c-2.03-0.61-4.07-1.05-6.1-1.35 c3.58-20.51-8.79-41.03-29.21-47.13c-6.08-1.82-12.23-2.17-18.08-1.25c-8.46-19.72-25.28-35.71-47.34-42.31 c-34.55-10.33-70.39,5.84-86.01,36.74c-4.85-4.03-10.57-7.17-16.98-9.09c-25.28-7.56-51.64,6.83-58.88,32.15 c-7.24,25.32,7.39,51.97,32.67,59.53c2.94,0.88,5.9,1.46,8.85,1.76c-2.56,20.41,10.02,40.38,30.34,46.46 c7.54,2.26,15.19,2.31,22.27,0.54c4.9,13.36,15.82,24.34,30.44,28.71c19.58,5.85,39.82-1.94,50.66-17.88 c4.94,6.52,11.91,11.6,20.31,14.11c18.35,5.49,37.38-3.06,45.73-19.43C353.7,362.19,375.91,349.56,382.14,327.8z" fill="#fad5e5"/></g><g id="change3_1"><path d="M422.58,306.45c-1.05-16.31-14.97-28.68-31.08-27.62c-1.46,0.1-2.89,0.3-4.29,0.6 c-2.46-14.39-15.3-24.89-30.02-23.92c-4.38,0.29-8.47,1.56-12.07,3.59c-10.11-10.93-24.79-17.36-40.69-16.32 c-24.9,1.63-44.47,21.04-47.43,45.21c-4.1-1.47-8.56-2.14-13.17-1.84c-18.23,1.19-32.03,17.12-30.84,35.56s16.93,32.44,35.16,31.24 c2.12-0.14,4.19-0.48,6.17-1c3.1,14.07,15.94,24.16,30.6,23.2c5.44-0.36,10.43-2.19,14.63-5.09c6.31,7.6,15.98,12.17,26.52,11.48 c14.11-0.92,25.48-11.01,28.81-24.15c4.74,3.09,10.46,4.73,16.52,4.34c13.23-0.87,23.63-11.15,25.24-23.97 C412.09,336.06,423.61,322.31,422.58,306.45z" fill="#fff"/></g><g id="change3_2"><path d="M74.07,287.9c1.03-18.11,16.12-31.94,33.69-30.89c1.6,0.1,3.16,0.31,4.68,0.64 c2.58-15.99,16.5-27.73,32.55-26.77c4.78,0.29,9.25,1.67,13.18,3.9c10.94-12.2,26.9-19.45,44.25-18.41 c27.16,1.62,48.63,23.02,52.02,49.82c4.46-1.66,9.31-2.44,14.35-2.14c19.88,1.19,35.04,18.76,33.87,39.24 c-1.17,20.48-18.23,36.12-38.11,34.94c-2.32-0.14-4.57-0.5-6.73-1.06c-3.28,15.64-17.21,26.93-33.19,25.98 c-5.93-0.35-11.39-2.35-15.98-5.53c-6.82,8.49-17.34,13.63-28.83,12.94c-15.39-0.92-27.85-12.02-31.58-26.59 c-5.14,3.47-11.37,5.33-17.97,4.93c-14.42-0.86-25.83-12.2-27.69-26.42C85.72,320.68,73.07,305.51,74.07,287.9z" fill="#fff"/></g></svg>