<svg xmlns="http://www.w3.org/2000/svg" xmlns:xlink="http://www.w3.org/1999/xlink"
  preserveAspectRatio="xMidYMid meet" version="1.0" viewBox="-1.6 -0.6 287.2 500.6"
  zoomAndPan="magnify" style="fill: rgb(0, 0, 0);" original_string_length="3357">
  <g>
    <g>
      <g>
        <g id="__id2_sfukwl44o2">
          <path
            d="M173.966,27.988c-1.291,97.251-2.581,194.501-3.871,291.752-.034,2.551,3.929,2.553,3.963,0,1.291-97.251,2.581-194.501,3.871-291.752,.034-2.551-3.929-2.553-3.963,0h0Z"
            style="fill: rgb(80, 48, 59);" />
        </g>
        <g id="__id3_sfukwl44o2">
          <path
            d="M171.08,395.078c-8.693-10.057-38.603-33.39-47.296-43.447-7.892-9.13-16.002-18.652-19.349-30.248-3.347-11.596-.524-25.906,9.723-32.28,10.617-6.604,24.851-2.452,34.998,4.852,10.148,7.304,11.38,8.621,20.418,23.687,4.217-16.271,20.227-28.399,31.632-32.014,11.405-3.616,24.033,1.979,28.619,13.031,3.125,7.533-1.506,24.707-7.155,33.52-12.413,19.368-18.301,25.762-40.895,49.942l-10.694,12.956Z"
            style="fill: rgb(219, 53, 124);" />
        </g>
      </g>
      <g>
        <g id="__id4_sfukwl44o2">
          <path
            d="M126.93,1.897c-3.372,35.357-6.744,70.713-10.117,106.07-3.148,33.004-8.547,66.666-1.003,99.423,.572,2.484,4.394,1.433,3.821-1.054-7.878-34.206-1.563-69.986,1.722-104.431,3.179-33.336,6.359-66.672,9.539-100.009,.242-2.538-3.723-2.521-3.963,0h0Z"
            style="fill: rgb(80, 48, 59);" />
        </g>
        <g id="__id5_sfukwl44o2">
          <path
            d="M119.355,246.521c-5.001-5.786-22.209-19.209-27.21-24.995-4.541-5.253-9.206-10.731-11.132-17.402-1.926-6.671-.302-14.904,5.594-18.571,6.108-3.799,14.297-1.411,20.135,2.792,5.838,4.202,6.547,4.96,11.746,13.627,2.426-9.361,11.637-16.338,18.198-18.418,6.562-2.08,13.827,1.138,16.465,7.497,1.798,4.334-.866,14.214-4.116,19.285-7.141,11.143-10.529,14.821-23.528,28.732l-6.153,7.454Z"
            style="fill: rgb(219, 53, 124);" />
        </g>
      </g>
      <g>
        <g id="__id6_sfukwl44o2">
          <path
            d="M42.409,21.303c2.441,94.413,4.883,188.825,7.324,283.238,.066,2.546,4.029,2.556,3.963,0-2.441-94.413-4.883-188.825-7.324-283.238-.066-2.546-4.029-2.556-3.963,0h0Z"
            style="fill: rgb(80, 48, 59);" />
        </g>
        <g id="__id7_sfukwl44o2">
          <path
            d="M55.588,356.84c-7.108-8.223-31.564-27.302-38.672-35.525-6.453-7.466-13.085-15.252-15.822-24.733-2.737-9.482-.429-21.182,7.95-26.394,8.681-5.4,20.32-2.005,28.618,3.968,8.298,5.972,9.305,7.049,16.695,19.368,3.448-13.304,16.539-23.221,25.864-26.177,9.326-2.956,19.651,1.618,23.401,10.655,2.556,6.159-1.232,20.203-5.85,27.409-10.15,15.837-14.964,21.065-33.439,40.836l-8.745,10.594Z"
            style="fill: rgb(212, 66, 103);" />
        </g>
      </g>
      <g>
        <g id="__id8_sfukwl44o2">
          <path
            d="M244.812,41.456c-2.091,136.126-6.506,272.206-13.246,408.181-.126,2.55,3.837,2.543,3.963,0,6.739-135.975,11.155-272.055,13.246-408.181,.039-2.551-3.924-2.552-3.963,0h0Z"
            style="fill: rgb(80, 48, 59);" />
        </g>
        <g id="__id9_sfukwl44o2">
          <path
            d="M234.92,500c-7.108-8.223-31.564-27.302-38.673-35.525-6.453-7.466-13.085-15.252-15.822-24.733-2.737-9.482-.429-21.182,7.95-26.394,8.681-5.4,20.32-2.005,28.618,3.968,8.298,5.972,9.305,7.05,16.695,19.368,3.448-13.304,16.539-23.221,25.864-26.177,9.326-2.956,19.651,1.618,23.401,10.656,2.556,6.159-1.231,20.202-5.85,27.409-10.15,15.836-14.964,21.065-33.439,40.836l-8.744,10.594Z"
            style="fill: rgb(219, 53, 124);" />
        </g>
        <g id="__id10_sfukwl44o2">
          <path
            d="M243.429,210.206c-4.699-6.034-21.197-20.321-25.895-26.355-4.266-5.478-8.645-11.188-10.227-17.949-1.582-6.761,.461-14.9,6.537-18.26,6.294-3.482,14.35-.677,19.966,3.818,5.616,4.496,6.285,5.289,11.034,14.211,2.902-9.224,12.457-15.721,19.116-17.462,6.659-1.742,13.75,1.845,16.06,8.33,1.574,4.42-1.593,14.151-5.097,19.049-7.702,10.762-11.273,14.263-24.967,27.49l-6.526,7.129Z"
            style="fill: rgb(212, 66, 103);" />
        </g>
      </g>
    </g>
  </g>
</svg>