<svg width="24" height="24" viewBox="0 0 24 24" fill="none"
    xmlns="http://www.w3.org/2000/svg">
    <path
        d="M12 22.75C6.072 22.75 1.25 17.928 1.25 12C1.25 6.072 6.072 1.25 12 1.25C17.928 1.25 22.75 6.072 22.75 12C22.75 17.928 17.928 22.75 12 22.75ZM12 2.75C6.9 2.75 2.75 6.9 2.75 12C2.75 17.1 6.9 21.25 12 21.25C17.1 21.25 21.25 17.1 21.25 12C21.25 6.9 17.1 2.75 12 2.75Z"
        fill="#21978B" />
    <path
        d="M11.9998 17.115C10.1078 17.115 8.36676 16.165 7.34376 14.571C7.11976 14.223 7.22076 13.761 7.56976 13.536C7.91776 13.31 8.38176 13.412 8.60576 13.762C9.35276 14.924 10.6218 15.617 12.0008 15.617C13.3798 15.617 14.6488 14.924 15.3968 13.763C15.6208 13.413 16.0848 13.313 16.4328 13.538C16.7828 13.762 16.8828 14.226 16.6588 14.574C15.6338 16.168 13.8928 17.119 12.0008 17.119L11.9998 17.115Z"
        fill="#21978B" />
    <path
        d="M14.7378 10.936C15.554 10.936 16.2158 10.2743 16.2158 9.45798C16.2158 8.6417 15.554 7.97998 14.7378 7.97998C13.9215 7.97998 13.2598 8.6417 13.2598 9.45798C13.2598 10.2743 13.9215 10.936 14.7378 10.936Z"
        fill="#21978B" />
    <path
        d="M9.26218 10.936C10.0785 10.936 10.7402 10.2743 10.7402 9.45798C10.7402 8.6417 10.0785 7.97998 9.26218 7.97998C8.4459 7.97998 7.78418 8.6417 7.78418 9.45798C7.78418 10.2743 8.4459 10.936 9.26218 10.936Z"
        fill="#21978B" />
</svg>