<svg xmlns="http://www.w3.org/2000/svg" width="95" height="95" viewBox="0 0 32 32">
    <g transform="translate(0 -1020.362)">
        <path fill="#e9eded" fill-rule="evenodd" stroke="#cad1d8" stroke-linecap="round" stroke-linejoin="round"
            d="m 26.49644,1027.8658 0,21.5 c 0,0.831 -0.66899,1.5 -1.49998,1.5 l -18.00004,0 c -0.83099,0 -1.49998,-0.669 -1.49998,-1.5 l 0,-26 c 0,-0.831 0.66899,-1.5 1.49998,-1.5 l 13.50002,0 z" />
        <path fill="#cad1d8"
            d="m 5,1044.3658 0,2 0,2 0,1 c 0,1.108 0.89198,2 2,2 l 18,0 c 1.10802,0 2,-0.892 2,-2 l 0,-1 0,-2 0,-2 -2,0 -18,0 -2,0 z" />
        <path fill="#cad1d8" stroke="#cad1d8" stroke-linecap="round" stroke-linejoin="round"
            d="m 26.49644,1027.8658 -4.49997,0 c -0.83099,0 -1.49998,-0.6691 -1.49998,-1.5 l 0,-4.5" />
        <path
            style="line-height:normal;text-indent:0;text-align:start;text-decoration-line:none;text-decoration-style:solid;text-decoration-color:#000;text-transform:none;block-progression:tb;isolation:auto;mix-blend-mode:normal"
            fill="#e9eded" fill-rule="evenodd"
            d="M 13.517578 24.988281 A 0.50005 0.50005 0 0 0 13.466797 24.990234 A 0.50005 0.50005 0 0 0 13.099609 25.794922 L 14.373047 27.496094 L 13.099609 29.195312 A 0.50019296 0.50019296 0 1 0 13.900391 29.794922 L 14.998047 28.330078 L 16.095703 29.794922 A 0.50019256 0.50019256 0 1 0 16.896484 29.195312 L 15.623047 27.496094 L 16.896484 25.794922 A 0.50005 0.50005 0 0 0 16.464844 24.990234 A 0.50005 0.50005 0 0 0 16.095703 25.195312 L 14.998047 26.660156 L 13.900391 25.195312 A 0.50005 0.50005 0 0 0 13.517578 24.988281 z M 8.453125 24.998047 A 0.50005 0.50005 0 0 0 8.4414062 25 A 0.50005 0.50005 0 0 0 8.4042969 25.005859 A 0.50005 0.50005 0 0 0 8.375 25.011719 A 0.50005 0.50005 0 0 0 8.3554688 25.017578 A 0.50005 0.50005 0 0 0 8.3457031 25.021484 A 0.50005 0.50005 0 0 0 8.2988281 25.039062 A 0.50005 0.50005 0 0 0 8 25.554688 L 8 27.441406 A 0.50005 0.50005 0 0 0 8 27.554688 L 8 29.441406 A 0.50005 0.50005 0 0 0 8.0585938 29.734375 A 0.50005 0.50005 0 0 0 8.0839844 29.777344 A 0.50005 0.50005 0 0 0 8.1132812 29.816406 A 0.50005 0.50005 0 0 0 8.1386719 29.845703 A 0.50005 0.50005 0 0 0 8.1484375 29.855469 A 0.50005 0.50005 0 0 0 8.1699219 29.875 A 0.50005 0.50005 0 0 0 8.1835938 29.886719 A 0.50005 0.50005 0 0 0 8.1914062 29.892578 A 0.50005 0.50005 0 0 0 8.2246094 29.917969 A 0.50005 0.50005 0 0 0 8.2324219 29.921875 A 0.50005 0.50005 0 0 0 8.3125 29.962891 A 0.50005 0.50005 0 0 0 8.3203125 29.964844 A 0.50005 0.50005 0 0 0 8.3222656 29.966797 A 0.50005 0.50005 0 0 0 8.3242188 29.966797 A 0.50005 0.50005 0 0 0 8.5566406 29.998047 L 11.492188 29.998047 A 0.50005 0.50005 0 1 0 11.492188 28.998047 L 9 28.998047 L 9 27.998047 L 10.492188 27.998047 A 0.50005 0.50005 0 1 0 10.492188 26.998047 L 9 26.998047 L 9 25.998047 L 11.492188 25.998047 A 0.50005 0.50005 0 1 0 11.492188 24.998047 L 8.5429688 24.998047 A 0.50005 0.50005 0 0 0 8.5039062 24.998047 A 0.50005 0.50005 0 0 0 8.4921875 24.998047 A 0.50005 0.50005 0 0 0 8.453125 24.998047 z M 18.453125 24.998047 A 0.50005 0.50005 0 0 0 18.404297 25.005859 A 0.50005 0.50005 0 0 0 18.402344 25.005859 A 0.50005 0.50005 0 0 0 18.375 25.011719 A 0.50005 0.50005 0 0 0 18.355469 25.017578 A 0.50005 0.50005 0 0 0 18.345703 25.021484 A 0.50005 0.50005 0 0 0 18 25.554688 L 18 27.441406 A 0.50005 0.50005 0 0 0 18 27.554688 L 18 29.441406 A 0.50005 0.50005 0 0 0 18.138672 29.845703 A 0.50005 0.50005 0 0 0 18.148438 29.855469 A 0.50005 0.50005 0 0 0 18.169922 29.875 A 0.50005 0.50005 0 0 0 18.183594 29.886719 A 0.50005 0.50005 0 0 0 18.191406 29.892578 A 0.50005 0.50005 0 0 0 18.224609 29.917969 A 0.50005 0.50005 0 0 0 18.232422 29.921875 A 0.50005 0.50005 0 0 0 18.320312 29.964844 A 0.50005 0.50005 0 0 0 18.322266 29.966797 A 0.50005 0.50005 0 0 0 18.324219 29.966797 A 0.50005 0.50005 0 0 0 18.556641 29.998047 L 21.492188 29.998047 A 0.50005 0.50005 0 1 0 21.492188 28.998047 L 19 28.998047 L 19 27.998047 L 20.492188 27.998047 A 0.50005 0.50005 0 1 0 20.492188 26.998047 L 19 26.998047 L 19 25.998047 L 21.492188 25.998047 A 0.50005 0.50005 0 1 0 21.492188 24.998047 L 18.542969 24.998047 A 0.50005 0.50005 0 0 0 18.503906 24.998047 A 0.50005 0.50005 0 0 0 18.492188 24.998047 A 0.50005 0.50005 0 0 0 18.453125 24.998047 z "
            color="#000" font-family="sans-serif" font-weight="400" overflow="visible"
            transform="translate(0 1020.362)" />
        <path
            style="line-height:normal;text-indent:0;text-align:start;text-decoration-line:none;text-decoration-style:solid;text-decoration-color:#000;text-transform:none;block-progression:tb;isolation:auto;mix-blend-mode:normal"
            fill="#cad1d8"
            d="M 9.5 9 A 0.50005 0.50005 0 0 0 9 9.5 L 9 17.5 A 0.50005 0.50005 0 0 0 9.5 18 L 12 18 L 12 21.5 A 0.50005 0.50005 0 0 0 12.5 22 L 21.5 22 A 0.50005 0.50005 0 0 0 22 21.5 L 22 13.5 A 0.50005 0.50005 0 0 0 21.5 13 L 19 13 L 19 9.5 A 0.50005 0.50005 0 0 0 18.5 9 L 9.5 9 z M 10 10 L 18 10 L 18 11 L 10 11 L 10 10 z M 10 12 L 18 12 L 18 13 L 12.5 13 A 0.50005 0.50005 0 0 0 12 13.5 L 12 17 L 10 17 L 10 12 z M 13 14 L 21 14 L 21 15 L 13 15 L 13 14 z M 13 16 L 21 16 L 21 21 L 13 21 L 13 16 z "
            color="#000" font-family="sans-serif" font-weight="400" overflow="visible"
            transform="translate(0 1020.362)" />
    </g>
</svg>