<svg xmlns="http://www.w3.org/2000/svg" width="90" height="95" viewBox="0 0 32 32">
    <g transform="translate(0 -1020.362)">
        <path fill="#e9eded" fill-rule="evenodd" stroke="#f05542" stroke-linecap="round" stroke-linejoin="round"
            d="m 26.49644,1027.8658 0,21.5 c 0,0.831 -0.66899,1.5 -1.49998,1.5 l -18.00004,0 c -0.83099,0 -1.49998,-0.669 -1.49998,-1.5 l 0,-26 c 0,-0.831 0.66899,-1.5 1.49998,-1.5 l 13.50002,0 z" />
        <path fill="#f05542"
            d="m 5,1044.3658 0,2 0,2 0,1 c 0,1.108 0.89198,2 2,2 l 18,0 c 1.10802,0 2,-0.892 2,-2 l 0,-1 0,-2 0,-2 -2,0 -18,0 -2,0 z" />
        <path fill="#4bbfeb" stroke="#4bbfeb" stroke-linecap="round" stroke-linejoin="round"
            d="m 26.49644,1027.8658 -4.49997,0 c -0.83099,0 -1.49998,-0.6691 -1.49998,-1.5 l 0,-4.5" />
        <path
            style="line-height:normal;text-indent:0;text-align:start;text-decoration-line:none;text-decoration-style:solid;text-decoration-color:#000;text-transform:none;block-progression:tb;isolation:auto;mix-blend-mode:normal"
            fill="#f05542" fill-rule="evenodd"
            d="M 7.5 3 A 0.50005 0.50005 0 0 0 7 3.5 L 7 7.5 A 0.50005 0.50005 0 0 0 7.5 8 L 12.5 8 A 0.50005 0.50005 0 0 0 13 7.5 L 13 3.5 A 0.50005 0.50005 0 0 0 12.5 3 L 7.5 3 z M 14.457031 3 A 0.50005 0.50005 0 0 0 14.507812 4 L 18.5 4 A 0.50005 0.50005 0 1 0 18.5 3 L 14.507812 3 A 0.50005 0.50005 0 0 0 14.457031 3 z M 8 4 L 12 4 L 12 7 L 8 7 L 8 4 z M 14.457031 5 A 0.50005 0.50005 0 0 0 14.507812 6 L 18.5 6 A 0.50005 0.50005 0 1 0 18.5 5 L 14.507812 5 A 0.50005 0.50005 0 0 0 14.457031 5 z M 14.457031 7 A 0.50005 0.50005 0 0 0 14.507812 8 L 18.5 8 A 0.50005 0.50005 0 1 0 18.5 7 L 14.507812 7 A 0.50005 0.50005 0 0 0 14.457031 7 z M 7.4570312 9 A 0.50005 0.50005 0 0 0 7.5078125 10 L 11.507812 10 A 0.50005 0.50005 0 1 0 11.507812 9 L 7.5078125 9 A 0.50005 0.50005 0 0 0 7.4570312 9 z M 13.457031 9 A 0.50005 0.50005 0 0 0 13.507812 10 L 14.507812 10 A 0.50005 0.50005 0 1 0 14.507812 9 L 13.507812 9 A 0.50005 0.50005 0 0 0 13.457031 9 z M 16.457031 9 A 0.50005 0.50005 0 0 0 16.507812 10 L 24.5 10 A 0.50005 0.50005 0 1 0 24.5 9 L 16.507812 9 A 0.50005 0.50005 0 0 0 16.457031 9 z M 7.4570312 11 A 0.50005 0.50005 0 0 0 7.5078125 12 L 13.507812 12 A 0.50005 0.50005 0 1 0 13.507812 11 L 7.5078125 11 A 0.50005 0.50005 0 0 0 7.4570312 11 z M 15.457031 11 A 0.50005 0.50005 0 0 0 15.507812 12 L 16.507812 12 A 0.50005 0.50005 0 1 0 16.507812 11 L 15.507812 11 A 0.50005 0.50005 0 0 0 15.457031 11 z M 18.457031 11 A 0.50005 0.50005 0 0 0 18.507812 12 L 24.5 12 A 0.50005 0.50005 0 1 0 24.5 11 L 18.507812 11 A 0.50005 0.50005 0 0 0 18.457031 11 z M 7.4570312 13 A 0.50005 0.50005 0 0 0 7.5078125 14 L 15.507812 14 A 0.50005 0.50005 0 1 0 15.507812 13 L 7.5078125 13 A 0.50005 0.50005 0 0 0 7.4570312 13 z M 17.457031 13 A 0.50005 0.50005 0 0 0 17.507812 14 L 18.507812 14 A 0.50005 0.50005 0 1 0 18.507812 13 L 17.507812 13 A 0.50005 0.50005 0 0 0 17.457031 13 z M 20.457031 13 A 0.50005 0.50005 0 0 0 20.507812 14 L 24.5 14 A 0.50005 0.50005 0 1 0 24.5 13 L 20.507812 13 A 0.50005 0.50005 0 0 0 20.457031 13 z M 7.4570312 15 A 0.50005 0.50005 0 0 0 7.5078125 16 L 11.507812 16 A 0.50005 0.50005 0 1 0 11.507812 15 L 7.5078125 15 A 0.50005 0.50005 0 0 0 7.4570312 15 z M 13.457031 15 A 0.50005 0.50005 0 0 0 13.507812 16 L 14.507812 16 A 0.50005 0.50005 0 1 0 14.507812 15 L 13.507812 15 A 0.50005 0.50005 0 0 0 13.457031 15 z M 16.457031 15 A 0.50005 0.50005 0 0 0 16.507812 16 L 21.039062 16 L 24.5 16 A 0.50005 0.50005 0 0 0 24.5 15 L 21.074219 15 L 16.507812 15 A 0.50005 0.50005 0 0 0 16.457031 15 z "
            color="#000" font-family="sans-serif" font-weight="400" overflow="visible"
            transform="translate(0 1020.362)" />
        <path fill="#f05542" stroke="#f05542" stroke-linecap="round" stroke-linejoin="round"
            d="m 26.49644,1027.8658 -4.49997,0 c -0.83099,0 -1.49998,-0.6691 -1.49998,-1.5 l 0,-4.5" />
        <path
            style="line-height:normal;text-indent:0;text-align:start;text-decoration-line:none;text-decoration-style:solid;text-decoration-color:#000;text-transform:none;block-progression:tb;isolation:auto;mix-blend-mode:normal"
            fill="#e9eded" fill-rule="evenodd"
            d="M 12.474609 24.990234 A 0.50005 0.50005 0 0 0 11.982422 25.498047 L 11.982422 29.460938 A 0.50005 0.50005 0 0 0 12.001953 29.642578 A 0.50005 0.50005 0 0 0 12.001953 29.644531 A 0.50005 0.50005 0 0 0 12.005859 29.658203 A 0.50005 0.50005 0 0 0 12.019531 29.693359 A 0.50005 0.50005 0 0 0 12.046875 29.75 A 0.50005 0.50005 0 0 0 12.066406 29.78125 A 0.50005 0.50005 0 0 0 12.072266 29.791016 A 0.50005 0.50005 0 0 0 12.095703 29.820312 A 0.50005 0.50005 0 0 0 12.121094 29.847656 A 0.50005 0.50005 0 0 0 12.132812 29.861328 A 0.50005 0.50005 0 0 0 12.158203 29.882812 A 0.50005 0.50005 0 0 0 12.171875 29.894531 A 0.50005 0.50005 0 0 0 12.183594 29.904297 A 0.50005 0.50005 0 0 0 12.21875 29.927734 A 0.50005 0.50005 0 0 0 12.294922 29.966797 A 0.50005 0.50005 0 0 0 12.322266 29.976562 A 0.50005 0.50005 0 0 0 12.490234 30.003906 L 13.488281 30.003906 A 0.50005 0.50005 0 0 0 13.636719 29.982422 C 14.945213 29.873741 15.996094 28.817721 15.996094 27.503906 C 15.996094 26.193182 14.950387 25.138556 13.646484 25.025391 A 0.50005 0.50005 0 0 0 13.496094 25.003906 L 13.419922 25.003906 L 13.369141 25.003906 L 12.597656 25.003906 A 0.50005 0.50005 0 0 0 12.474609 24.990234 z M 9.4960938 25 C 8.7183219 25 8.0779613 25.607777 8.0097656 26.369141 A 0.50005 0.50005 0 0 0 7.9960938 26.494141 C 7.9960859 26.49612 7.9960937 26.498019 7.9960938 26.5 L 7.9960938 29.494141 A 0.50005 0.50005 0 1 0 8.9960938 29.494141 L 8.9960938 27.90625 C 9.1533422 27.962868 9.3204293 28 9.4960938 28 C 10.318599 28 10.996094 27.3225 10.996094 26.5 C 10.996094 25.6775 10.318599 25 9.4960938 25 z M 18.5625 25 C 17.699259 25 16.990234 25.711019 16.990234 26.574219 L 16.990234 27.457031 A 0.50005 0.50005 0 0 0 16.990234 27.53125 L 16.990234 29.5 A 0.50005 0.50005 0 1 0 17.990234 29.5 L 17.990234 28 L 18.990234 28 A 0.50005 0.50005 0 1 0 18.990234 27 L 17.990234 27 L 17.990234 26.574219 C 17.990234 26.247719 18.235925 26 18.5625 26 L 19.490234 26 A 0.50005 0.50005 0 1 0 19.490234 25 L 18.5625 25 z M 9.4960938 26 C 9.7781584 26 9.9960938 26.218 9.9960938 26.5 C 9.9960938 26.7821 9.7781584 27 9.4960938 27 C 9.2140291 27 8.9960937 26.7821 8.9960938 26.5 L 8.9960938 26.494141 C 8.9991782 26.215072 9.2160446 26 9.4960938 26 z M 12.982422 26.003906 L 13.419922 26.003906 C 14.312157 26.003906 14.996094 26.674206 14.996094 27.503906 C 14.996094 28.333306 14.312128 29.003906 13.419922 29.003906 L 12.982422 29.003906 L 12.982422 26.003906 z "
            color="#000" font-family="sans-serif" font-weight="400" overflow="visible"
            transform="translate(0 1020.362)" />
    </g>
</svg>