<svg width="24" height="24" viewBox="0 0 24 24" fill="none"
    xmlns="http://www.w3.org/2000/svg">
    <g opacity="0.5">
        <path
            d="M21.1298 11.358L3.61382 2.10798C3.32382 1.95598 2.97382 2.00598 2.74082 2.23398C2.51082 2.45998 2.44782 2.81098 2.59082 3.10198L6.95282 12.022L2.59082 20.942C2.44782 21.234 2.51082 21.585 2.74082 21.81C2.88582 21.95 3.07382 22.022 3.26382 22.022C3.38382 22.022 3.50382 21.994 3.61382 21.935L21.1308 12.685C21.3758 12.555 21.5308 12.299 21.5308 12.021C21.5308 11.743 21.3758 11.489 21.1308 11.359L21.1298 11.358ZM4.94782 4.50998L17.7518 11.272H8.25482L4.94782 4.51198V4.50998ZM8.25482 12.77H17.7528L4.94782 19.535L8.25482 12.772V12.77Z"
            fill="#21978B" />
    </g>
</svg>