<svg xmlns="http://www.w3.org/2000/svg" width="512" height="512">
    <defs>
        <clipPath id="a" clipPathUnits="userSpaceOnUse">
            <path fill="#ca4638"
                d="M-466.69 13.995a104.046 104.046 0 1 1-208.092 0 104.046 104.046 0 1 1 208.092 0z"
                transform="matrix(1.33552 0 0 1.33552 -106.34 494.85)" />
        </clipPath>
        <clipPath id="b" clipPathUnits="userSpaceOnUse">
            <path fill="#ca4638"
                d="M-466.69 13.995a104.046 104.046 0 1 1-208.092 0 104.046 104.046 0 1 1 208.092 0z"
                transform="matrix(2.30668 0 0 2.30668 881.533 384.84)" />
        </clipPath>
    </defs>
    <g transform="translate(690.972 -161.762)">
        <g clip-path="url(#a)"
            transform="translate(1065.2 -468.57) scale(1.72717)">
            <path fill="#fff"
                d="M-1077.013 588.36h416.883v-21.39h-416.883v21.39z" />
            <path fill="#ca4638"
                d="M-1077.013 566.97h416.883v-21.382h-416.883v21.381z" />
            <path fill="#fff"
                d="M-1077.013 631.106h416.883v-21.38h-416.883v21.38z" />
            <path fill="#ca4638"
                d="M-1077.013 652.497h416.883v-21.39h-416.883v21.39zM-1077.013 609.725h416.883v-21.366h-416.883v21.366z" />
            <path fill="#fff"
                d="M-1077.013 544.58h416.883v-21.366h-416.883v21.365z" />
            <path fill="#ca4638"
                d="M-1077.013 481.452h416.883v-21.365h-416.883v21.365z" />
            <path fill="#fff"
                d="M-1077.013 417.317h416.883v-21.39h-416.883v21.39z" />
            <path fill="#ca4638"
                d="M-1077.013 438.697h416.883v-21.382h-416.883v21.382zM-1077.013 524.224h416.883v-21.406h-416.883v21.406zM-1077.013 395.927h416.883v-21.341h-416.883v21.34z" />
            <path fill="#fff"
                d="M-1077.013 460.087h416.883v-21.39h-416.883v21.39zM-1077.013 502.817h416.883v-21.365h-416.883v21.365z" />
        </g>
        <path fill="#356ba0" d="M-674.972 436.922h240v-259.8h-240v259.8z"
            clip-path="url(#b)" />
        <path fill="#fff"
            d="M-491.347 211.873l1.795 5.576h5.856l-4.74 3.445 1.834 5.577-4.743-3.448-4.78 3.448 1.834-5.577-4.74-3.445h5.856l1.829-5.576M-491.347 260.85l1.795 5.573h5.856l-4.74 3.448 1.834 5.573-4.743-3.408-4.78 3.408 1.834-5.573-4.74-3.448h5.856l1.829-5.573M-491.347 309.853l1.795 5.587h5.856l-4.74 3.435 1.834 5.586-4.743-3.448-4.78 3.448 1.834-5.586-4.74-3.435h5.856l1.829-5.587M-491.347 359.942l1.795 5.613h5.856l-4.74 3.448 1.834 5.613-4.743-3.487-4.78 3.487 1.834-5.613-4.74-3.448h5.856l1.829-5.613M-491.347 407.804l1.795 5.587h5.856l-4.74 3.474 1.834 5.573-4.743-3.474-4.78 3.474 1.834-5.573-4.74-3.474h5.856l1.829-5.587M-535.285 211.873l1.808 5.576h5.882l-4.757 3.445 1.809 5.577-4.74-3.448-4.754 3.448 1.803-5.577-4.74-3.445h5.882l1.808-5.576M-535.285 260.85l1.808 5.573h5.882l-4.757 3.448 1.809 5.573-4.74-3.408-4.754 3.408 1.803-5.573-4.74-3.448h5.882l1.808-5.573M-535.285 309.853l1.808 5.587h5.882l-4.757 3.435 1.809 5.586-4.74-3.448-4.754 3.448 1.803-5.586-4.74-3.435h5.882l1.808-5.587M-535.285 359.942l1.808 5.613h5.882l-4.757 3.448 1.809 5.613-4.74-3.487-4.754 3.487 1.803-5.613-4.74-3.448h5.882l1.808-5.613M-535.285 407.804l1.808 5.587h5.882l-4.757 3.474 1.809 5.573-4.74-3.474-4.754 3.474 1.803-5.573-4.74-3.474h5.882l1.808-5.587M-579.188 260.85l1.795 5.573h5.856l-4.74 3.448 1.829 5.573-4.74-3.408-4.78 3.408 1.835-5.573-4.744-3.448h5.846l1.842-5.573M-579.188 309.853l1.795 5.587h5.856l-4.74 3.435 1.829 5.586-4.74-3.448-4.78 3.448 1.835-5.586-4.744-3.435h5.846l1.842-5.587M-579.188 359.942l1.795 5.613h5.856l-4.74 3.448 1.829 5.613-4.74-3.487-4.78 3.487 1.835-5.613-4.744-3.448h5.846l1.842-5.613M-579.188 407.804l1.795 5.587h5.856l-4.74 3.474 1.829 5.573-4.74-3.474-4.78 3.474 1.835-5.573-4.744-3.474h5.846l1.842-5.587M-623.14 309.853l1.807 5.587h5.881l-4.74 3.435 1.808 5.586-4.753-3.448-4.744 3.448 1.808-5.586-4.753-3.435h5.856l1.834-5.587M-623.14 359.942l1.807 5.613h5.881l-4.74 3.448 1.808 5.613-4.753-3.487-4.744 3.487 1.808-5.613-4.753-3.448h5.856l1.834-5.613M-623.14 407.804l1.807 5.587h5.881l-4.74 3.474 1.808 5.573-4.753-3.474-4.744 3.474 1.808-5.573-4.753-3.474h5.856l1.834-5.587M-468.958 236.335l1.806 5.613h5.882l-4.754 3.408 1.808 5.613-4.74-3.444-4.757 3.444 1.822-5.613-4.754-3.408h5.869l1.821-5.613M-468.958 286.926l1.806 5.577h5.882l-4.754 3.444 1.808 5.577-4.74-3.448-4.757 3.448 1.822-5.577-4.754-3.444h5.869l1.821-5.577M-469.407 336.494l1.821 5.573h5.87l-4.745 3.448 1.809 5.574-4.754-3.475-4.74 3.475 1.806-5.574-4.754-3.448h5.882l1.808-5.573M-469.844 385.468l1.822 5.577h5.882l-4.767 3.444 1.83 5.577-4.767-3.435-4.727 3.435 1.808-5.577-4.77-3.444h5.882l1.808-5.577M-512.9 236.335l1.822 5.613h5.882l-4.767 3.408 1.83 5.613-4.767-3.444-4.753 3.444 1.834-5.613-4.744-3.408h5.856l1.808-5.613M-512.9 286.926l1.822 5.577h5.882l-4.767 3.444 1.83 5.577-4.767-3.448-4.753 3.448 1.834-5.577-4.744-3.444h5.856l1.808-5.577M-513.323 336.494l1.809 5.573h5.881l-4.74 3.448 1.806 5.574-4.754-3.475-4.74 3.475 1.808-5.574-4.756-3.448h5.858l1.83-5.573M-513.759 385.468l1.808 5.577h5.87l-4.741 3.444 1.808 5.577-4.744-3.435-4.753 3.435 1.808-5.577-4.74-3.444h5.869l1.818-5.577M-556.825 234.606l1.819 5.574h5.869l-4.74 3.447 1.82 5.574-4.765-3.445-4.744 3.445 1.821-5.574-4.753-3.447h5.869l1.808-5.574M-556.825 285.158l1.819 5.573h5.869l-4.74 3.475 1.82 5.547-4.765-3.409-4.744 3.409 1.821-5.547-4.753-3.475h5.869l1.808-5.573M-557.248 334.726l1.79 5.573h5.882l-4.754 3.448 1.822 5.573-4.74-3.447-4.77 3.447 1.82-5.573-4.74-3.448h5.87l1.82-5.573M-557.697 383.726l1.821 5.586h5.869l-4.744 3.409 1.809 5.613-4.754-3.448-4.74 3.448 1.806-5.613-4.754-3.409h5.869l1.821-5.586M-600.727 284.66l1.803 5.573h5.872l-4.757 3.487 1.808 5.573-4.727-3.474-4.766 3.474 1.829-5.573-4.754-3.487h5.87l1.82-5.574M-601.163 334.224l1.795 5.586h5.882l-4.754 3.474 1.819 5.574-4.74-3.47-4.754 3.47 1.806-5.574-4.74-3.474h5.855l1.835-5.586M-601.613 383.2l1.822 5.588h5.868l-4.753 3.473 1.803 5.574-4.74-3.474-4.74 3.474 1.808-5.574-4.757-3.473h5.869l1.821-5.587M-645.118 333.377l1.821 5.577h5.869l-4.754 3.445 1.822 5.576-4.757-3.447-4.74 3.447 1.808-5.576-4.753-3.445h5.882l1.805-5.577M-645.538 382.354l1.792 5.574h5.882l-4.753 3.448 1.821 5.573-4.74-3.444-4.77 3.444 1.821-5.573-4.74-3.448h5.869l1.821-5.574M-447.431 211.873l1.795 5.576h5.881l-4.74 3.445 1.803 5.577-4.74-3.448-4.753 3.448 1.808-5.577-4.744-3.445h5.87l1.82-5.576M-447.431 260.85l1.795 5.573h5.881l-4.74 3.448 1.803 5.573-4.74-3.408-4.753 3.408 1.808-5.573-4.744-3.448h5.87l1.82-5.573M-447.431 309.853l1.795 5.587h5.881l-4.74 3.435 1.803 5.586-4.74-3.448-4.753 3.448 1.808-5.586-4.744-3.435h5.87l1.82-5.587M-447.431 359.942l1.795 5.613h5.881l-4.74 3.448 1.803 5.613-4.74-3.487-4.753 3.487 1.808-5.613-4.744-3.448h5.87l1.82-5.613M-447.431 407.804l1.795 5.587h5.881l-4.74 3.474 1.803 5.573-4.74-3.474-4.753 3.474 1.808-5.573-4.744-3.474h5.87l1.82-5.587M-468.958 189.611l1.806 5.587h5.882l-4.74 3.474 1.808 5.574-4.754-3.475-4.744 3.475 1.809-5.574-4.754-3.474h5.856l1.834-5.587M-663.545 407.804l1.805 5.587h5.882l-4.74 3.474 1.808 5.573-4.753-3.474-4.744 3.474 1.808-5.573-4.753-3.474h5.856l1.834-5.587M-659.505 359.942l1.806 5.613h5.882l-4.74 3.448 1.808 5.613-4.754-3.487-4.743 3.487 1.808-5.613-4.754-3.448h5.856l1.835-5.613M-512.9 193.908l1.822 5.613h5.882l-4.767 3.409 1.83 5.613-4.767-3.445-4.753 3.445 1.834-5.613-4.744-3.409h5.856l1.808-5.613" />
    </g>
</svg>