<svg xmlns="http://www.w3.org/2000/svg" width="90px" height="95px" viewBox="0 0 32 32">
    <g transform="translate(0 -1020.362)">
        <path fill="#e9eded" fill-rule="evenodd" stroke="#4bbfeb" stroke-linecap="round" stroke-linejoin="round"
            d="m 26.49822,1027.8658 0,21.5 c 0,0.831 -0.66899,1.5 -1.49998,1.5 l -18.00004,0 c -0.83099,0 -1.49998,-0.669 -1.49998,-1.5 l 0,-26 c 0,-0.831 0.66899,-1.5 1.49998,-1.5 l 13.50002,0 z" />
        <path fill="#4bbfeb"
            d="m 4.99822,1044.3658 0,2 0,2 0,1 c 0,1.108 0.89198,2 2,2 l 18,0 c 1.10802,0 2,-0.892 2,-2 l 0,-1 0,-2 0,-2 -2,0 -18,0 -2,0 z" />
        <path fill="#4bbfeb" stroke="#4bbfeb" stroke-linecap="round" stroke-linejoin="round"
            d="m 26.49466,1027.8658 -4.49997,0 c -0.83099,0 -1.49998,-0.6691 -1.49998,-1.5 l 0,-4.5" />
        <path
            style="line-height:normal;text-indent:0;text-align:start;text-decoration-line:none;text-decoration-style:solid;text-decoration-color:#000;text-transform:none;block-progression:tb;isolation:auto;mix-blend-mode:normal"
            fill="#4bbfeb" fill-rule="evenodd"
            d="M 15.498047 7 L 15.498047 8 L 14.498047 8 L 14.498047 9 L 15.498047 9 L 15.498047 10 L 14.498047 10 L 14.498047 11 L 15.498047 11 L 15.498047 12 L 14.498047 12 L 14.498047 13 L 15.498047 13 L 15.498047 14 L 14.498047 14 L 14.498047 15 L 15.498047 15 L 15.498047 16 L 14.498047 16 L 14.498047 17 L 15.498047 17 L 15.498047 18 L 14.998047 18 A 0.50004997 0.50004997 0 0 0 14.498047 18.5 L 14.498047 19.464844 A 0.50004997 0.50004997 0 0 0 14.498047 19.5 L 14.498047 20 L 14.498047 20.5 C 14.498047 21.3224 15.175696 22 15.998047 22 C 16.820398 22 17.498047 21.3224 17.498047 20.5 L 17.498047 20.033203 A 0.50004997 0.50004997 0 0 0 17.498047 20 L 17.498047 19.5 L 17.498047 18.5 A 0.50004997 0.50004997 0 0 0 16.998047 18 L 16.498047 18 L 16.498047 17 L 17.498047 17 L 17.498047 16 L 16.498047 16 L 16.498047 15 L 17.498047 15 L 17.498047 14 L 16.498047 14 L 16.498047 13 L 17.498047 13 L 17.498047 12 L 16.498047 12 L 16.498047 11 L 17.498047 11 L 17.498047 10 L 16.498047 10 L 16.498047 9 L 17.498047 9 L 17.498047 8 L 16.498047 8 L 16.498047 7 L 15.498047 7 z M 15.498047 19 L 16.498047 19 L 16.498047 19.5 L 16.498047 20.5 C 16.498047 20.7857 16.283696 21 15.998047 21 C 15.712398 21 15.498047 20.7857 15.498047 20.5 L 15.498047 20.033203 A 0.50004997 0.50004997 0 0 0 15.498047 20 L 15.498047 19.5 L 15.498047 19 z "
            color="#000" font-family="sans-serif" font-weight="400" overflow="visible"
            transform="translate(0 1020.362)" />
        <path
            style="line-height:normal;text-indent:0;text-align:start;text-decoration-line:none;text-decoration-style:solid;text-decoration-color:#000;text-transform:none;block-progression:tb;isolation:auto;mix-blend-mode:normal"
            fill="#e9eded" fill-rule="evenodd"
            d="M 13.490234 24.990234 A 0.50005 0.50005 0 0 0 12.998047 25.496094 L 12.998047 29.498047 A 0.50005 0.50005 0 1 0 13.998047 29.498047 L 13.998047 25.496094 A 0.50005 0.50005 0 0 0 13.490234 24.990234 z M 11.511719 24.998047 A 0.50005 0.50005 0 0 0 11.460938 25 L 8.5058594 25 A 0.50005 0.50005 0 1 0 8.5058594 26 L 10.498047 26 L 8.1347656 29.154297 A 0.50005 0.50005 0 0 0 8.4375 29.992188 A 0.50019268 0.50019268 0 0 0 8.4472656 29.994141 A 0.50005 0.50005 0 0 0 8.5058594 29.998047 L 11.494141 29.998047 A 0.50005 0.50005 0 1 0 11.494141 28.998047 L 9.5019531 28.998047 L 11.865234 25.841797 A 0.50005 0.50005 0 0 0 11.75 25.066406 A 0.50005 0.50005 0 0 0 11.720703 25.050781 A 0.50005 0.50005 0 0 0 11.705078 25.042969 A 0.50005 0.50005 0 0 0 11.675781 25.03125 A 0.50005 0.50005 0 0 0 11.658203 25.025391 A 0.50005 0.50005 0 0 0 11.511719 24.998047 z M 16.498047 25.003906 C 15.723646 25.003906 15.086569 25.606569 15.013672 26.363281 C 15.013355 26.366575 15.012014 26.369747 15.011719 26.373047 A 0.50005 0.50005 0 0 0 14.998047 26.498047 C 14.998039 26.500027 14.998047 26.501925 14.998047 26.503906 L 14.998047 29.498047 A 0.50005 0.50005 0 1 0 15.998047 29.498047 L 15.998047 27.910156 C 16.155295 27.966775 16.322382 28.003906 16.498047 28.003906 C 17.320552 28.003906 17.998047 27.326406 17.998047 26.503906 C 17.998047 25.681406 17.320552 25.003906 16.498047 25.003906 z M 16.498047 26.003906 C 16.780112 26.003906 16.998047 26.221906 16.998047 26.503906 C 16.998047 26.786006 16.780112 27.003906 16.498047 27.003906 C 16.215982 27.003906 15.998047 26.786006 15.998047 26.503906 L 15.998047 26.498047 C 16.001131 26.218978 16.217997 26.003906 16.498047 26.003906 z "
            color="#000" font-family="sans-serif" font-weight="400" overflow="visible"
            transform="translate(0 1020.362)" />
    </g>
</svg>