<?xml version="1.0" encoding="UTF-8" standalone="no"?>
<!-- Created with Inkscape (http://www.inkscape.org/) -->

<svg
   width="210mm"
   height="297mm"
   viewBox="0 0 210 297"
   version="1.1"
   id="svg3950"
   inkscape:version="1.2 (1:1.2.1+202207142221+cd75a1ee6d)"
   sodipodi:docname="t.svg"
   xml:space="preserve"
   xmlns:inkscape="http://www.inkscape.org/namespaces/inkscape"
   xmlns:sodipodi="http://sodipodi.sourceforge.net/DTD/sodipodi-0.dtd"
   xmlns:xlink="http://www.w3.org/1999/xlink"
   xmlns="http://www.w3.org/2000/svg"
   xmlns:svg="http://www.w3.org/2000/svg"><sodipodi:namedview
     id="namedview3952"
     pagecolor="#505050"
     bordercolor="#ffffff"
     borderopacity="1"
     inkscape:showpageshadow="0"
     inkscape:pageopacity="0"
     inkscape:pagecheckerboard="1"
     inkscape:deskcolor="#505050"
     inkscape:document-units="mm"
     showgrid="false"
     inkscape:zoom="0.74297138"
     inkscape:cx="-4.0378406"
     inkscape:cy="325.71914"
     inkscape:window-width="1920"
     inkscape:window-height="1004"
     inkscape:window-x="0"
     inkscape:window-y="0"
     inkscape:window-maximized="1"
     inkscape:current-layer="layer1" /><defs
     id="defs3947"><inkscape:perspective
       sodipodi:type="inkscape:persp3d"
       inkscape:vp_x="0 : 148.5 : 1"
       inkscape:vp_y="0 : 1000 : 0"
       inkscape:vp_z="210 : 148.5 : 1"
       inkscape:persp3d-origin="105 : 99 : 1"
       id="perspective4900" /><radialGradient
       r="14.572"
       fy="137.661"
       fx="223.196"
       cy="137.661"
       cx="223.196"
       gradientTransform="matrix(1.0857794,-0.03431182,0.03943781,1.2479887,-154.54194,-26.542647)"
       id="A"
       xlink:href="#Ac"><stop
         offset="0"
         stop-color="#fefefc"
         id="stop7541" /><stop
         offset=".757"
         stop-color="#fefefc"
         id="stop7543" /><stop
         offset="1"
         stop-color="#d4d4d4"
         id="stop7545" /></radialGradient><radialGradient
       r="14.572"
       fy="137.661"
       fx="223.196"
       cy="137.661"
       cx="223.196"
       gradientTransform="matrix(0.81524244,-0.03431182,0.02961133,1.2479887,-129.43743,-26.542647)"
       id="B"
       xlink:href="#Ac"><stop
         offset="0"
         stop-color="#fefefc"
         id="stop7548" /><stop
         offset=".757"
         stop-color="#fefefc"
         id="stop7550" /><stop
         offset="1"
         stop-color="#d4d4d4"
         id="stop7552" /></radialGradient><linearGradient
       id="C"
       xlink:href="#Ac"><stop
         offset="0"
         stop-color="#3e2a06"
         id="stop7555" /><stop
         offset="1"
         stop-color="#ad780a"
         id="stop7557" /></linearGradient><linearGradient
       xlink:href="#C"
       id="D"
       x1="447.11301"
       y1="364.09"
       x2="489.181"
       y2="300.828" /><linearGradient
       xlink:href="#C"
       id="E"
       x1="442.039"
       y1="371.54401"
       x2="490.12201"
       y2="293.58499" /><clipPath
       id="F"><path
         d="m 137.577,281.02 c 1.6,-0.663 3.398,-0.784 5.1,-0.47 1.702,0.314 3.31,1.05 4.743,2.022 2.864,1.946 4.988,4.778 7.023,7.58 4.672,6.434 9.17,13.002 13.245,19.83 3.306,5.538 6.344,11.257 10.164,16.453 2.494,3.392 5.307,6.54 7.813,9.922 2.506,3.382 4.728,7.056 5.84,11.117 1.444,5.277 0.885,11.093 -1.627,15.953 -1.767,3.42 -4.476,6.352 -7.772,8.34 -3.296,1.988 -7.17,3.014 -11.016,2.87 -6.114,-0.23 -11.7,-3.285 -17.384,-5.55 -11.58,-4.612 -24.16,-6.06 -36.097,-9.652 -3.67,-1.104 -7.276,-2.41 -10.97,-3.426 -1.64,-0.45 -3.31,-0.848 -4.86,-1.55 -1.55,-0.702 -3,-1.75 -3.862,-3.217 -0.666,-1.134 -0.948,-2.47 -0.93,-3.786 0.018,-1.316 0.326,-2.615 0.774,-3.852 0.896,-2.474 2.343,-4.714 3.32,-7.157 1.595,-3.99 1.882,-8.388 1.667,-12.68 -0.215,-4.292 -0.91,-8.545 -1.205,-12.83 -0.13,-1.914 -0.18,-3.853 0.185,-5.736 0.365,-1.883 1.176,-3.725 2.558,-5.055 1.274,-1.227 2.965,-1.955 4.696,-2.317 1.731,-0.362 3.515,-0.377 5.284,-0.338 1.769,0.039 3.54,0.134 5.304,-0.01 1.764,-0.144 3.533,-0.54 5.07,-1.418 1.46,-0.834 2.654,-2.075 3.644,-3.434 0.99,-1.359 1.79,-2.846 2.61,-4.314 0.82,-1.468 1.668,-2.932 2.742,-4.226 1.074,-1.294 2.39,-2.423 3.943,-3.067"
         fill="#402c07"
         class="C D"
         id="path7562" /></clipPath><filter
       id="G"
       x="-0.10751652"
       width="1.2150331"
       y="-0.10850249"
       height="1.217005"
       class="B"><feGaussianBlur
         stdDeviation="3.924"
         id="feGaussianBlur7565" /></filter><filter
       id="H"
       class="B"
       x="-0.075380206"
       y="-0.069737747"
       width="1.1507604"
       height="1.1394755"><feGaussianBlur
         stdDeviation="2.437"
         id="feGaussianBlur7568" /></filter><filter
       id="I"
       class="B"
       x="-0.033742446"
       y="-0.018603092"
       width="1.0674849"
       height="1.0372062"><feGaussianBlur
         stdDeviation=".37"
         id="feGaussianBlur7571" /></filter><clipPath
       id="J"><path
         d="m 248.06,184.612 c 0,0 -5.106,6.345 -7.897,10.247 -2.791,3.902 -5.737,6.65 -8.587,10.75 -2.85,4.1 -7.365,9.432 -9.45,13.93 -2.085,4.498 -2.32,9.036 -4.265,13.85 -1.945,4.814 -3.7,10.642 -5.97,15.336 -2.27,4.694 -5.37,9.685 -6.94,13.536 -1.57,3.851 -3.81,5.724 -4.108,10.22 -0.298,4.496 -0.577,8.317 3.772,16.772 4.349,8.455 17.236,22.007 24.242,27.925 7.006,5.918 9.39,7.225 14.602,8.526 5.212,1.301 13.856,2.998 16.73,-1.27 2.874,-4.268 2.272,-5.965 -0.75,-10.666 -3.022,-4.701 -4.825,-5.302 -9.796,-9.573 -4.971,-4.271 -18.637,-14.873 -22.682,-19.24 -4.045,-4.367 -7.107,-3.412 -5.53,-6.284 1.577,-2.872 -2.207,-4.01 -2.658,-7.693 -0.764,-6.245 0.944,-18.7 1.46,-22.133 0.516,-3.433 1.224,-2.924 3.518,-8.04 2.294,-5.116 4.124,-8.624 7.05,-13.467 2.926,-4.843 8.625,-10.128 11.15,-15.278 2.525,-5.15 3.504,-10.72 4.362,-15.318 0.858,-4.598 1.746,-12.13 1.746,-12.13 z"
         fill="none"
         stroke="#729fcf"
         stroke-width="0.125"
         stroke-miterlimit="4"
         stroke-dasharray="none"
         class="F G"
         id="path7574" /></clipPath><filter
       id="K"
       x="-0.10102266"
       width="1.2020453"
       y="-0.042664733"
       height="1.0853295"
       class="B"><feGaussianBlur
         stdDeviation="1.132"
         id="feGaussianBlur7577" /></filter><clipPath
       id="L"><path
         d="m 386.188,285.328 c -0.405,-1.104 -1.118,-2.082 -1.99,-2.87 -0.872,-0.788 -1.9,-1.392 -2.983,-1.852 -2.165,-0.92 -4.52,-1.26 -6.832,-1.696 l -6.528,-1.277 c -2.27,-0.386 -4.618,-0.632 -6.865,-0.125 -1.966,0.443 -3.784,1.46 -5.272,2.82 -1.488,1.36 -2.65,3.056 -3.485,4.9 -1.472,3.23 -1.935,6.865 -1.654,10.403 0.21,2.633 0.875,5.346 2.61,7.34 1.4,1.61 3.387,2.615 5.434,3.22 3.525,1.043 7.367,0.988 10.86,-0.155 a 28.59,28.59 0 0 0 14.33,-10.779 c 1.14,-1.65 2.112,-3.448 2.553,-5.403 0.336,-1.5 0.348,-3.08 -0.178,-4.515"
         fill="none"
         stroke="#ce5c00"
         class="F G H I"
         id="path7580" /></clipPath><filter
       id="M"
       x="-0.070435189"
       width="1.1408705"
       y="-0.15056568"
       height="1.3011314"
       class="B"><feGaussianBlur
         stdDeviation="1.025"
         id="feGaussianBlur7583" /></filter><clipPath
       id="N"><path
         d="m 386.188,285.328 c -0.405,-1.104 -1.118,-2.082 -1.99,-2.87 -0.872,-0.788 -1.9,-1.392 -2.983,-1.852 -2.165,-0.92 -4.52,-1.26 -6.832,-1.696 l -6.528,-1.277 c -2.27,-0.386 -4.618,-0.632 -6.865,-0.125 -1.966,0.443 -3.784,1.46 -5.272,2.82 -1.488,1.36 -2.65,3.056 -3.485,4.9 -1.472,3.23 -1.935,6.865 -1.654,10.403 0.21,2.633 0.875,5.346 2.61,7.34 1.4,1.61 3.387,2.615 5.434,3.22 3.525,1.043 7.367,0.988 10.86,-0.155 a 28.59,28.59 0 0 0 14.33,-10.779 c 1.14,-1.65 2.112,-3.448 2.553,-5.403 0.336,-1.5 0.348,-3.08 -0.178,-4.515"
         fill="none"
         stroke="#ce5c00"
         class="F G H I"
         id="path7586" /></clipPath><filter
       id="O"
       x="-0.20046403"
       width="1.400928"
       y="-0.23410527"
       height="1.4682105"
       class="B"><feGaussianBlur
         stdDeviation="2.844"
         id="feGaussianBlur7589" /></filter><filter
       id="P"
       x="-0.091421179"
       width="1.1828424"
       y="-0.1067632"
       height="1.2135264"
       class="B"><feGaussianBlur
         stdDeviation="1.297"
         id="feGaussianBlur7592" /></filter><filter
       id="Q"
       x="-0.43220413"
       width="1.8644083"
       y="-0.28961098"
       height="1.579222"
       class="B"><feGaussianBlur
         stdDeviation=".86"
         id="feGaussianBlur7595" /></filter><filter
       id="R"
       x="-0.57980382"
       width="2.1596076"
       y="-0.48601583"
       height="1.9720317"
       class="B"><feGaussianBlur
         stdDeviation="2.64"
         id="feGaussianBlur7598" /></filter><filter
       id="S"
       class="B"
       x="-0.076233067"
       y="-0.068207733"
       width="1.1524661"
       height="1.1364155"><feGaussianBlur
         stdDeviation="2.209"
         id="feGaussianBlur7601" /></filter><clipPath
       id="T"><path
         d="m 516.006,331.876 c 0.91,1.597 -1.57,3.388 -2.816,4.738 -2.742,2.973 -6.45,4.902 -9.896,7.02 -5.914,3.635 -12.62,5.903 -18.42,9.717 -3.883,2.553 -7.328,5.722 -10.86,8.742 -3.022,2.584 -5.482,5.876 -8.832,8.018 -3.35,2.142 -7.044,4.154 -10.99,4.65 -4.783,0.6 -9.872,-0.256 -14.3,-2.164 -3.095,-1.334 -6.16,-3.38 -7.963,-6.23 -1.813,-2.865 -2.06,-6.538 -2.233,-9.924 -0.307,-6.06 1.363,-12.06 2.178,-18.073 0.68,-5.002 1.853,-9.943 2.26,-14.975 0.74,-9.142 -0.78,-18.408 0.32,-27.513 0.355,-2.937 -0.18,-6.66 2.012,-8.644 2.038,-1.845 5.43,-1.12 8.18,-1.063 3.345,0.07 6.632,0.95 9.89,1.717 2.056,0.483 3.998,1.41 6.072,1.81 3.44,0.663 6.966,1.066 10.467,0.952 3.785,-0.124 7.437,-1.796 11.224,-1.765 1.552,0.013 3.124,0.282 4.586,0.8 1.483,0.525 2.988,1.206 4.123,2.295 0.865,0.83 1.43,1.957 1.88,3.07 0.672,1.662 0.894,3.478 1.167,5.25 0.242,1.574 -0.153,3.27 0.414,4.76 1.83,4.8 5.577,8.727 9.225,12.343 1.743,1.935 4.03,3.534 6.167,4.828 2.27,1.374 4.368,2.45 5.463,4.816 0.66,1.485 -0.544,3.76 0.683,4.826 z"
         fill="url(#E)"
         class="C D"
         id="path7604" /></clipPath><clipPath
       id="U"><path
         d="m 516.006,331.876 c 0.91,1.597 -1.57,3.388 -2.816,4.738 -2.742,2.973 -6.45,4.902 -9.896,7.02 -5.914,3.635 -12.62,5.903 -18.42,9.717 -3.883,2.553 -7.328,5.722 -10.86,8.742 -3.022,2.584 -5.482,5.876 -8.832,8.018 -3.35,2.142 -7.044,4.154 -10.99,4.65 -4.783,0.6 -9.872,-0.256 -14.3,-2.164 -3.095,-1.334 -6.16,-3.38 -7.963,-6.23 -1.813,-2.865 -2.06,-6.538 -2.233,-9.924 -0.307,-6.06 1.363,-12.06 2.178,-18.073 0.68,-5.002 1.853,-9.943 2.26,-14.975 0.74,-9.142 -0.78,-18.408 0.32,-27.513 0.355,-2.937 -0.18,-6.66 2.012,-8.644 2.038,-1.845 5.43,-1.12 8.18,-1.063 3.345,0.07 6.632,0.95 9.89,1.717 2.056,0.483 3.998,1.41 6.072,1.81 3.44,0.663 6.966,1.066 10.467,0.952 3.785,-0.124 7.437,-1.796 11.224,-1.765 1.552,0.013 3.124,0.282 4.586,0.8 1.483,0.525 2.988,1.206 4.123,2.295 0.865,0.83 1.43,1.957 1.88,3.07 0.672,1.662 0.894,3.478 1.167,5.25 0.242,1.574 -0.153,3.27 0.414,4.76 1.83,4.8 5.577,8.727 9.225,12.343 1.743,1.935 4.03,3.534 6.167,4.828 2.27,1.374 4.368,2.45 5.463,4.816 0.66,1.485 -0.544,3.76 0.683,4.826 z"
         fill="url(#E)"
         class="C D"
         id="path7607" /></clipPath><filter
       id="V"
       x="-0.14502178"
       width="1.2900436"
       y="-0.14300932"
       height="1.2860186"
       class="B"><feGaussianBlur
         stdDeviation="4.779"
         id="feGaussianBlur7610" /></filter><clipPath
       id="W"><path
         d="m 511.827,331.9 c 0.795,1.296 -1.374,2.75 -2.464,3.845 -2.4,2.413 -5.644,3.978 -8.66,5.697 -5.174,2.95 -11.04,4.8 -16.116,7.885 -3.397,2.072 -6.41,4.644 -9.502,7.094 -2.644,2.097 -4.796,4.77 -7.728,6.506 -2.932,1.736 -6.163,3.37 -9.616,3.774 -4.185,0.488 -8.637,-0.208 -12.5,-1.756 -2.708,-1.083 -5.4,-2.744 -6.967,-5.055 -1.586,-2.325 -1.803,-5.305 -1.953,-8.053 -0.27,-4.918 1.192,-9.787 1.906,-14.666 0.594,-4.06 1.62,-8.07 1.977,-12.152 0.647,-7.418 -0.682,-14.938 0.28,-22.327 0.3,-2.383 -0.158,-5.404 1.76,-7.014 1.783,-1.497 4.75,-0.9 7.156,-0.862 2.927,0.058 5.803,0.772 8.652,1.393 1.8,0.392 3.498,1.145 5.313,1.47 3,0.538 6.094,0.865 9.158,0.772 3.312,-0.1 6.506,-1.458 9.82,-1.432 1.358,0.01 2.733,0.23 4.013,0.65 1.297,0.426 2.614,0.98 3.607,1.862 0.757,0.674 1.25,1.588 1.644,2.5 0.588,1.35 0.782,2.822 1.02,4.26 0.212,1.277 -0.134,2.655 0.363,3.862 1.6,3.895 4.88,7.082 8.07,10.016 1.525,1.57 3.526,2.868 5.396,3.918 1.985,1.115 3.82,1.988 4.78,3.908 0.577,1.205 -0.476,3.052 0.598,3.917 z"
         fill="url(#D)"
         class="C D"
         id="path7613" /></clipPath><filter
       id="X"
       x="-0.11532076"
       width="1.2306415"
       y="-0.12496218"
       height="1.2499244"
       class="B"><feGaussianBlur
         stdDeviation="3.173"
         id="feGaussianBlur7616" /></filter><filter
       id="Y"
       x="-0.020890802"
       width="1.0417815"
       y="-0.1291346"
       height="1.2582692"
       class="B"><feGaussianBlur
         stdDeviation=".479"
         id="feGaussianBlur7619" /></filter><filter
       id="Z"
       x="-0.17758153"
       width="1.3551631"
       y="-0.15947407"
       height="1.3189481"
       class="B"><feGaussianBlur
         stdDeviation=".901"
         id="feGaussianBlur7622" /></filter><filter
       height="1.1156203"
       y="-0.057810131"
       width="2.6341536"
       x="-0.8170768"
       id="a"
       class="B"><feGaussianBlur
         stdDeviation="1.446"
         id="feGaussianBlur7625" /></filter><linearGradient
       id="b"
       xlink:href="#Ac"><stop
         offset="0"
         id="stop7628" /><stop
         offset="1"
         stop-opacity=".25"
         id="stop7630" /></linearGradient><filter
       id="c"
       class="B"
       x="-0.086848296"
       y="-0.08123491"
       width="1.1736966"
       height="1.1624697"><feGaussianBlur
         stdDeviation=".785"
         id="feGaussianBlur7633" /></filter><filter
       id="d"
       class="B"
       x="-0.050782066"
       y="-0.073253945"
       width="1.101564"
       height="1.1465079"><feGaussianBlur
         stdDeviation="1.138"
         id="feGaussianBlur7636" /></filter><filter
       id="e"
       class="B"
       x="-0.049888469"
       y="-0.046192531"
       width="1.0997769"
       height="1.0923851"><feGaussianBlur
         stdDeviation=".643"
         id="feGaussianBlur7639" /></filter><clipPath
       id="f"><path
         d="m 304.847,225.45 c 6.016,4.923 9.777,12.317 10.943,20.003 1.825,12.03 -2.346,24.075 -6.446,35.533 -0.817,2.285 -1.64,4.6 -1.965,6.995 -0.325,2.395 -0.12,4.948 1.03,7.086 1.303,2.425 3.732,4.125 6.367,4.923 2.59,0.784 5.394,0.76 8.015,0.092 2.621,-0.668 5.06,-1.968 7.187,-3.64 5.48,-4.3 8.758,-10.986 10,-17.844 1.242,-6.858 0.64,-13.93 -0.55,-20.798 -1.623,-9.37 -4.31,-18.54 -7.74,-27.408 -2.518,-6.507 -5.468,-12.91 -9.618,-18.52 -4.046,-5.47 -9.162,-10.1 -13.103,-15.635 -2.732,-3.844 -4.9,-8.13 -8.192,-11.508 -1.646,-1.69 -3.577,-3.135 -5.77,-4 -2.193,-0.865 -4.664,-1.124 -6.933,-0.482 -1.505,0.426 -2.892,1.237 -4.038,2.3 -1.146,1.063 -2.053,2.376 -2.693,3.803 -1.28,2.853 -1.477,6.112 -0.965,9.198 0.66,3.983 2.444,7.693 4.466,11.19 2.274,3.932 4.918,7.72 8.384,10.654 3.6,3.047 7.962,5.074 11.61,8.06"
         fill="none"
         stroke="#c17d11"
         class="F G H I"
         id="path7642" /></clipPath><filter
       id="g"
       x="-0.11751928"
       width="1.2350386"
       y="-0.040043935"
       height="1.0800879"
       class="B"><feGaussianBlur
         stdDeviation="1.352"
         id="feGaussianBlur7645" /></filter><clipPath
       id="h"><path
         d="m 54.232,122.362 c -3.792,4.79 -8.518,11.69 -8.193,17.25 0.325,5.56 3.86,13.935 8.375,16 4.515,2.065 5.754,0.013 8.33,-2.5 2.576,-2.513 3.86,-7.348 4.006,-12.25 0.146,-4.902 -3.035,-11.92 -5.44,-15.25 -2.405,-3.33 -3.287,-8.04 -7.08,-3.25 z"
         fill="url(#B)"
         class="C D"
         id="path7648" /></clipPath><filter
       height="1.441644"
       y="-0.22082201"
       width="1.3108064"
       x="-0.1554032"
       id="i"
       class="B"><feGaussianBlur
         stdDeviation=".899"
         id="feGaussianBlur7651" /></filter><filter
       id="j"
       class="B"
       x="-0.034388598"
       y="-0.079362035"
       width="1.0687772"
       height="1.1587241"><feGaussianBlur
         stdDeviation=".758"
         id="feGaussianBlur7654" /></filter><filter
       id="k"
       x="-0.16100422"
       width="1.3220084"
       y="-0.13035393"
       height="1.2607079"
       class="B"><feGaussianBlur
         stdDeviation=".849"
         id="feGaussianBlur7657" /></filter><linearGradient
       id="l"
       xlink:href="#Ac"><stop
         offset="0"
         stop-color="#3a2903"
         id="stop7660" /><stop
         offset=".555"
         stop-color="#735208"
         id="stop7662" /><stop
         offset="1"
         stop-color="#ac8c04"
         id="stop7664" /></linearGradient><filter
       id="m"
       class="B"
       x="-0.046607517"
       y="-0.088804878"
       width="1.093215"
       height="1.1776098"><feGaussianBlur
         stdDeviation=".11"
         id="feGaussianBlur7667" /></filter><filter
       id="n"
       x="-0.11608126"
       width="1.2321625"
       y="-0.1052773"
       height="1.2105546"
       class="B"><feGaussianBlur
         stdDeviation=".11"
         id="feGaussianBlur7670" /></filter><filter
       height="1.2721649"
       y="-0.13608247"
       width="1.2429448"
       x="-0.12147239"
       id="o"
       class="B"><feGaussianBlur
         stdDeviation=".264"
         id="feGaussianBlur7673" /></filter><filter
       height="1.2923861"
       y="-0.14619298"
       width="1.4692509"
       x="-0.23462543"
       id="p"
       class="B"><feGaussianBlur
         stdDeviation=".513"
         id="feGaussianBlur7676" /></filter><linearGradient
       id="q"
       xlink:href="#Ac"><stop
         offset="0"
         stop-color="#646464"
         stop-opacity="0"
         id="stop7679" /><stop
         offset=".306"
         stop-color="#646464"
         stop-opacity=".583"
         id="stop7681" /><stop
         offset=".47"
         stop-color="#646464"
         id="stop7683" /><stop
         offset=".728"
         stop-color="#646464"
         stop-opacity=".257"
         id="stop7685" /><stop
         offset="1"
         stop-color="#646464"
         stop-opacity="0"
         id="stop7687" /></linearGradient><filter
       id="r"
       class="B"
       x="-0.022587843"
       y="-0.025700008"
       width="1.0451757"
       height="1.0513999"><feGaussianBlur
         stdDeviation=".135"
         id="feGaussianBlur7690" /></filter><filter
       id="s"
       class="B"
       x="-0.023150623"
       y="-0.02508829"
       width="1.0463012"
       height="1.0501766"><feGaussianBlur
         stdDeviation=".148"
         id="feGaussianBlur7693" /></filter><clipPath
       id="t"><path
         d="m 85.75,122.362 c -2.547,2.127 -5.208,4.6 -6.25,7.75 -1.31,3.96 -1.633,8.917 0.5,12.5 3.92,6.582 12.384,13.85 19.75,11.75 4.875,-1.39 6.107,-8.5 7,-13.5 0.59,-3.307 0.596,-7.193 -1.25,-10 -3.612,-5.493 -10.427,-9.894 -17,-10 -1.044,-0.017 -1.95,0.83 -2.75,1.5 z"
         fill="url(#A)"
         class="C D"
         id="path7696" /></clipPath><filter
       height="1.4183517"
       y="-0.20917584"
       width="1.3159841"
       x="-0.15799205"
       id="u"
       class="B"><feGaussianBlur
         stdDeviation=".249"
         id="feGaussianBlur7699" /></filter><filter
       height="1.3623062"
       y="-0.18115312"
       width="1.3570521"
       x="-0.17852606"
       id="v"
       class="B"><feGaussianBlur
         stdDeviation=".519"
         id="feGaussianBlur7702" /></filter><filter
       id="w"
       x="-0.29209802"
       width="1.584196"
       y="-0.30819777"
       height="1.6163955"
       class="B"><feGaussianBlur
         stdDeviation="1.74"
         id="feGaussianBlur7705" /></filter><filter
       height="1.2148129"
       y="-0.10740643"
       width="1.1083521"
       x="-0.05417607"
       id="x"
       class="B"><feGaussianBlur
         stdDeviation="1.361"
         id="feGaussianBlur7708" /></filter><filter
       id="y"
       class="B"
       x="-0.036538821"
       y="-0.07406684"
       width="1.0730776"
       height="1.1481338"><feGaussianBlur
         stdDeviation=".932"
         id="feGaussianBlur7711" /></filter><filter
       height="1.2584136"
       y="-0.12920675"
       width="1.1527812"
       x="-0.076390661"
       id="z"
       class="B"><feGaussianBlur
         stdDeviation="2.036"
         id="feGaussianBlur7714" /></filter><radialGradient
       id="AA"
       gradientTransform="matrix(0.81524244,-0.03431182,0.02961133,1.2479887,-1048.854,-876.48841)"
       cx="223.196"
       cy="137.661"
       fx="223.196"
       fy="137.661"
       r="14.572"
       xlink:href="#Ac"><stop
         offset="0"
         stop-color="#fefefc"
         id="stop7717" /><stop
         offset=".757"
         stop-color="#fefefc"
         id="stop7719" /><stop
         offset="1"
         stop-color="#d4d4d4"
         id="stop7721" /></radialGradient><radialGradient
       id="AB"
       gradientTransform="matrix(1.0857794,-0.03431182,0.03943781,1.2479887,-1073.9585,-876.48841)"
       cx="223.196"
       cy="137.661"
       fx="223.196"
       fy="137.661"
       r="14.572"
       xlink:href="#Ac"><stop
         offset="0"
         stop-color="#fefefc"
         id="stop7724" /><stop
         offset=".757"
         stop-color="#fefefc"
         id="stop7726" /><stop
         offset="1"
         stop-color="#d4d4d4"
         id="stop7728" /></radialGradient><radialGradient
       id="AC"
       gradientTransform="matrix(0.69784558,-0.50717348,0.46034105,0.63340638,-1111.5185,-657.91565)"
       cx="275.53799"
       cy="150.651"
       fx="275.53799"
       fy="150.651"
       r="15.382"
       xlink:href="#Ac"><stop
         offset="0"
         stop-color="#020204"
         id="stop7731" /><stop
         offset=".734"
         stop-color="#020204"
         id="stop7733" /><stop
         offset="1"
         stop-color="#5c5c5c"
         id="stop7735" /></radialGradient><linearGradient
       id="AD"
       x1="303.01599"
       y1="132.77"
       x2="309.733"
       y2="140.72501"
       xlink:href="#Ac"
       gradientTransform="translate(-840.41657,-840.94576)"><stop
         offset="0"
         stop-color="#949494"
         stop-opacity=".392"
         id="stop7738" /><stop
         offset=".5"
         stop-color="#949494"
         id="stop7740" /><stop
         offset="1"
         stop-color="#949494"
         stop-opacity=".392"
         id="stop7742" /></linearGradient><linearGradient
       id="AE"
       x1="87.25"
       y1="119.987"
       x2="108.625"
       y2="132.487"
       xlink:href="#Ac"
       gradientTransform="translate(-840.41657,-840.94576)"><stop
         offset="0"
         stop-color="#747474"
         id="stop7745" /><stop
         offset=".125"
         stop-color="#8c8c8c"
         id="stop7747" /><stop
         offset=".25"
         stop-color="#a4a4a4"
         id="stop7749" /><stop
         offset=".5"
         stop-color="#d4d4d4"
         id="stop7751" /><stop
         offset=".619"
         stop-color="#d4d4d4"
         id="stop7753" /><stop
         offset="1"
         stop-color="#7c7c7c"
         id="stop7755" /></linearGradient><linearGradient
       xlink:href="#q"
       id="AF"
       x1="253.86649"
       y1="1739.7494"
       x2="473.72891"
       y2="1947.3141"
       gradientTransform="matrix(1.0390857,0,0,0.96238449,-840.41657,-840.94576)"
       gradientUnits="userSpaceOnUse" /><linearGradient
       xlink:href="#q"
       id="AG"
       x1="-388.21863"
       y1="1617.1807"
       x2="-199.32188"
       y2="1799.0995"
       gradientTransform="matrix(1.063506,0,0,0.94028621,-840.41657,-840.94576)"
       gradientUnits="userSpaceOnUse" /><linearGradient
       id="AH"
       x1="164.049"
       y1="132.063"
       x2="169.882"
       y2="142.493"
       xlink:href="#Ac"
       gradientTransform="translate(-840.41657,-840.94576)"><stop
         offset="0"
         stop-color="#757574"
         stop-opacity="0"
         id="stop7760" /><stop
         offset=".263"
         stop-color="#757574"
         id="stop7762" /><stop
         offset=".5"
         stop-color="#757574"
         id="stop7764" /><stop
         offset="1"
         stop-color="#757574"
         stop-opacity="0"
         id="stop7766" /></linearGradient><radialGradient
       id="AI"
       gradientTransform="matrix(0.93618683,-0.38640412,0.27133164,0.65738721,-1084.8918,-694.22286)"
       cx="294.48499"
       cy="193.099"
       fx="294.48499"
       fy="193.099"
       r="31.111"
       xlink:href="#Ac"><stop
         offset="0"
         stop-color="#d2940a"
         id="stop7769" /><stop
         offset=".751"
         stop-color="#d89c08"
         id="stop7771" /><stop
         offset=".866"
         stop-color="#b67e07"
         id="stop7773" /><stop
         offset="1"
         stop-color="#946106"
         id="stop7775" /></radialGradient><linearGradient
       id="AJ"
       x1="46.856998"
       y1="158.314"
       x2="103.337"
       y2="157.87199"
       xlink:href="#Ac"
       gradientTransform="translate(-840.41657,-840.94576)"><stop
         offset="0"
         stop-color="#ad780a"
         id="stop7778" /><stop
         offset=".12"
         stop-color="#d89e08"
         id="stop7780" /><stop
         offset=".255"
         stop-color="#edb80b"
         id="stop7782" /><stop
         offset=".392"
         stop-color="#ebc80d"
         id="stop7784" /><stop
         offset=".527"
         stop-color="#f5d838"
         id="stop7786" /><stop
         offset=".769"
         stop-color="#f6d811"
         id="stop7788" /><stop
         offset="1"
         stop-color="#f5cd31"
         id="stop7790" /></linearGradient><radialGradient
       xlink:href="#l"
       id="AK"
       gradientTransform="matrix(1.329972,0,0,0.75189551,-840.41657,-840.94576)"
       cx="418.01312"
       cy="878.58075"
       fx="418.01312"
       fy="878.58075"
       r="15.038813"
       gradientUnits="userSpaceOnUse" /><radialGradient
       xlink:href="#l"
       id="AL"
       gradientTransform="matrix(0.96078922,0,0,1.040811,-840.41657,-840.94576)"
       cx="248.21732"
       cy="570.4704"
       fx="248.21732"
       fy="570.4704"
       r="4.4770303"
       gradientUnits="userSpaceOnUse" /><linearGradient
       id="AM"
       x1="243.03101"
       y1="157.01801"
       x2="243.46899"
       y2="159.76801"
       xlink:href="#Ac"
       gradientTransform="translate(-853.1087,-553.93491)"><stop
         offset="0"
         stop-color="#f5ce2d"
         id="stop7795" /><stop
         offset="1"
         stop-color="#d79b08"
         id="stop7797" /></linearGradient><radialGradient
       id="AN"
       gradientTransform="matrix(0.20141143,-0.03316079,0.03065006,0.18616184,-843.54293,-726.9099)"
       cx="268.07001"
       cy="126.535"
       fx="268.07001"
       fy="126.535"
       r="35.511002"
       xlink:href="#Ac"><stop
         offset="0"
         stop-color="#c8c8c8"
         id="stop7800" /><stop
         offset="1"
         stop-color="#797978"
         id="stop7802" /></radialGradient><radialGradient
       id="AO"
       gradientTransform="matrix(-0.69844216,0,0,0.76335815,-561.76643,-790.72582)"
       cx="336.224"
       cy="220.53799"
       fx="336.224"
       fy="220.53799"
       r="27.391001"
       xlink:href="#Ac"><stop
         offset="0"
         id="stop7805" /><stop
         offset="1"
         stop-opacity=".25"
         id="stop7807" /></radialGradient><radialGradient
       xlink:href="#b"
       id="AP"
       gradientTransform="matrix(1.1772716,0,0,0.84942165,-840.41657,-840.94576)"
       cx="15704.272"
       cy="12115.083"
       fx="15704.272"
       fy="12115.083"
       r="1378.4281"
       gradientUnits="userSpaceOnUse" /><radialGradient
       xlink:href="#b"
       id="AQ"
       gradientTransform="matrix(0.97180204,0,0,1.0290162,-840.41657,-840.94576)"
       cx="7193.3389"
       cy="6085.2153"
       fx="7193.3389"
       fy="6085.2153"
       r="284.13663"
       gradientUnits="userSpaceOnUse" /><linearGradient
       id="AR"
       x1="28.285999"
       y1="323.901"
       x2="31.982"
       y2="351.487"
       xlink:href="#Ac"
       gradientTransform="translate(-818.41512,-840.94576)"><stop
         offset="0"
         id="stop7812" /><stop
         offset="1"
         stop-opacity="0"
         id="stop7814" /></linearGradient><linearGradient
       id="AS"
       x1="442.039"
       y1="371.54401"
       x2="490.12201"
       y2="293.58499"
       xlink:href="#Ac"
       gradientTransform="translate(-840.41657,-840.94576)"><stop
         offset="0"
         stop-color="#3e2a06"
         id="stop7817" /><stop
         offset="1"
         stop-color="#ad780a"
         id="stop7819" /></linearGradient><linearGradient
       id="AT"
       x1="45.164001"
       y1="289.58899"
       x2="43.75"
       y2="302.31699"
       xlink:href="#Ac"
       gradientTransform="translate(-840.41657,-840.94576)"><stop
         offset="0"
         stop-color="#f3cd0c"
         id="stop7822" /><stop
         offset="1"
         stop-color="#f3cd0c"
         stop-opacity="0"
         id="stop7824" /></linearGradient><radialGradient
       id="AU"
       gradientTransform="matrix(1.3082075,0.35053296,-0.36795399,1.3732236,-1150.9259,-1081.2949)"
       cx="363.34"
       cy="303.41501"
       fx="363.34"
       fy="303.41501"
       r="16.846001"
       xlink:href="#Ac"><stop
         offset="0"
         stop-color="#110800"
         id="stop7827" /><stop
         offset=".591"
         stop-color="#a65a00"
         stop-opacity=".8"
         id="stop7829" /><stop
         offset="1"
         stop-color="#ff921e"
         stop-opacity="0"
         id="stop7831" /></radialGradient><radialGradient
       id="AV"
       gradientTransform="matrix(1.3082075,0.35053296,-0.36795399,1.3732236,-1150.9259,-1403.6037)"
       cx="363.34"
       cy="303.41501"
       fx="363.34"
       fy="303.41501"
       r="16.846001"
       xlink:href="#Ac"><stop
         offset="0"
         stop-color="#110800"
         id="stop7834" /><stop
         offset=".591"
         stop-color="#a65a00"
         stop-opacity=".8"
         id="stop7836" /><stop
         offset="1"
         stop-color="#ff921e"
         stop-opacity="0"
         id="stop7838" /></radialGradient><radialGradient
       id="AW"
       gradientTransform="matrix(0.36025223,0.15680447,-0.07246786,0.16649214,-579.79974,-659.00751)"
       cx="382.23499"
       cy="246.858"
       fx="382.23499"
       fy="246.858"
       r="20.538"
       xlink:href="#Ac"><stop
         offset="0"
         stop-color="#7c7c7c"
         id="stop7841" /><stop
         offset="1"
         stop-color="#7c7c7c"
         stop-opacity=".33"
         id="stop7843" /></radialGradient><linearGradient
       id="AX"
       x1="358.5"
       y1="279.362"
       x2="361.5"
       y2="279.237"
       xlink:href="#Ac"
       gradientTransform="translate(-840.41657,-840.94576)"><stop
         offset="0"
         stop-color="#7c7c7c"
         id="stop7846" /><stop
         offset="1"
         stop-color="#7c7c7c"
         stop-opacity=".33"
         id="stop7848" /></linearGradient><linearGradient
       id="AY"
       x1="123.134"
       y1="301.54001"
       x2="170.864"
       y2="381.62"
       xlink:href="#Ac"
       gradientTransform="translate(-840.41657,-840.94576)"><stop
         offset="0"
         stop-color="#b98309"
         id="stop7851" /><stop
         offset="1"
         stop-color="#382605"
         id="stop7853" /></linearGradient><linearGradient
       id="AZ"
       x1="171.03999"
       y1="322.22299"
       x2="186.06599"
       y2="350.508"
       xlink:href="#Ac"
       gradientTransform="translate(-840.41657,-840.94576)"><stop
         offset="0"
         stop-color="#ebc40c"
         id="stop7856" /><stop
         offset="1"
         stop-color="#ebc40c"
         stop-opacity="0"
         id="stop7858" /></linearGradient><path
       id="Aa"
       d="m 71.484,295.64 c -0.563,-1.102 -1.587,-1.926 -2.73,-2.403 -1.143,-0.477 -2.397,-0.63 -3.634,-0.62 -2.475,0.02 -4.935,0.664 -7.4,0.45 -2.083,-0.18 -4.06,-0.963 -6.1,-1.457 -2.097,-0.5 -4.322,-0.7 -6.405,-0.143 -2.226,0.606 -4.19,2.094 -5.42,4.045 -1.084,1.72 -1.6,3.753 -1.76,5.78 -0.16,2.027 0.013,4.066 0.218,6.09 0.148,1.464 0.314,2.93 0.668,4.36 0.354,1.43 0.904,2.823 1.766,4.015 1.24,1.716 3.083,2.94 5.07,3.675 a 14.09,14.09 0 0 0 10.132,-0.177 c 5.66,-2.457 10.45,-6.864 13.37,-12.3 1.045,-1.946 1.857,-4.02 2.382,-6.165 0.208,-0.853 0.372,-1.722 0.38,-2.6 0.008,-0.878 -0.147,-1.77 -0.546,-2.55 z" /><path
       id="Ab"
       d="m 362.22,276.456 a 13.48,13.48 0 0 0 -1.625,0.188 c -3.47,0.617 -6.647,2.81 -8.437,5.844 a 12.38,12.38 0 0 0 -1.656,7.156 c 0.073,-1.742 0.53,-3.447 1.375,-4.97 1.434,-2.582 4.032,-4.53 6.938,-5.062 1.8,-0.328 3.632,-0.13 5.438,0.094 1.733,0.216 3.48,0.443 5.188,0.813 2.64,0.572 5.254,1.45 7.47,3 0.516,0.36 1,0.77 1.406,1.25 0.406,0.48 0.722,1.038 0.844,1.656 0.178,0.904 -0.08,1.853 -0.53,2.656 -0.45,0.803 -1.065,1.507 -1.72,2.156 -0.53,0.526 -1.095,1.034 -1.656,1.53 2.56,-0.496 5.152,-1.198 7.28,-2.687 0.9,-0.63 1.715,-1.385 2.25,-2.344 0.535,-0.959 0.762,-2.12 0.5,-3.187 -0.177,-0.72 -0.57,-1.382 -1.062,-1.937 -0.492,-0.555 -1.08,-1.012 -1.687,-1.437 -2.68,-1.877 -5.815,-3.08 -9.062,-3.47 -2.08,-0.383 -4.18,-0.706 -6.28,-0.97 -1.643,-0.206 -3.32,-0.373 -4.97,-0.28 z" /><linearGradient
       id="Ac"
       gradientUnits="userSpaceOnUse" /><linearGradient
       x1="0"
       y1="-21.333"
       y2="85.333"
       id="A-6"
       x2="64"
       gradientUnits="userSpaceOnUse"
       gradientTransform="matrix(0.26458333,0,0,0.26458333,194.51895,120.80312)"><stop
         stop-color="#2383ae"
         offset="0%"
         id="stop8297" /><stop
         stop-color="#6dd7b9"
         offset="100%"
         id="stop8299" /></linearGradient></defs><g
     inkscape:label="Layer 1"
     inkscape:groupmode="layer"
     id="layer1"><path
       sodipodi:type="spiral"
       style="fill:none;fill-rule:evenodd;stroke:#f7f9fc;stroke-width:0.264583;stroke-opacity:1"
       id="path4259"
       sodipodi:cx="45.904396"
       sodipodi:cy="33.445934"
       sodipodi:expansion="1"
       sodipodi:revolution="3"
       sodipodi:radius="9.4130344"
       sodipodi:argument="-17.308584"
       sodipodi:t0="0"
       d="m 45.904396,33.445934 c 0.01407,0.471745 -0.628959,0.251714 -0.784071,0.02339 -0.420343,-0.618738 0.135577,-1.380043 0.737288,-1.591533 1.076319,-0.378306 2.148204,0.468372 2.398995,1.497967 0.368046,1.510971 -0.802353,2.929922 -2.258646,3.206457 -1.941009,0.368578 -3.716863,-1.136319 -4.013919,-3.019325 -0.373816,-2.36957 1.470171,-4.506394 3.780004,-4.821382 2.797516,-0.381493 5.297403,1.803939 5.628844,4.540683 0.390592,3.225159 -2.137649,6.089338 -5.301363,6.436307 -3.652632,0.400589 -6.881889,-2.471322 -7.243768,-6.062042 -0.41119,-4.080004 2.804969,-7.674874 6.822721,-8.051231 4.50731,-0.422214 8.468174,3.138599 8.858693,7.5834 0.43355,4.934572 -3.472216,9.26171 -8.344079,9.666156"
       transform="matrix(0.61885854,0,0,0.53483673,14.736771,11.838574)" /><path
       sodipodi:type="spiral"
       style="fill:none;fill-rule:evenodd;stroke:#f7f9fc;stroke-width:0.264583;stroke-opacity:1"
       id="path4259-3"
       sodipodi:cx="45.904396"
       sodipodi:cy="33.445934"
       sodipodi:expansion="1"
       sodipodi:revolution="3"
       sodipodi:radius="9.4130344"
       sodipodi:argument="-17.308584"
       sodipodi:t0="0"
       d="m 45.904396,33.445934 c 0.01407,0.471745 -0.628959,0.251714 -0.784071,0.02339 -0.420343,-0.618738 0.135577,-1.380043 0.737288,-1.591533 1.076319,-0.378306 2.148204,0.468372 2.398995,1.497967 0.368046,1.510971 -0.802353,2.929922 -2.258646,3.206457 -1.941009,0.368578 -3.716863,-1.136319 -4.013919,-3.019325 -0.373816,-2.36957 1.470171,-4.506394 3.780004,-4.821382 2.797516,-0.381493 5.297403,1.803939 5.628844,4.540683 0.390592,3.225159 -2.137649,6.089338 -5.301363,6.436307 -3.652632,0.400589 -6.881889,-2.471322 -7.243768,-6.062042 -0.41119,-4.080004 2.804969,-7.674874 6.822721,-8.051231 4.50731,-0.422214 8.468174,3.138599 8.858693,7.5834 0.43355,4.934572 -3.472216,9.26171 -8.344079,9.666156"
       transform="matrix(0.54725172,0,0,0.55315878,141.58179,65.757871)" /><g
       sodipodi:type="inkscape:box3d"
       id="g4902"
       style="fill:#ececec;stroke:#f7f9fc;stroke-opacity:1"
       inkscape:perspectiveID="#perspective4900"
       inkscape:corner0="1.3233534 : 0.19383562 : 0 : 1"
       inkscape:corner7="1.1085638 : 0.15309209 : 0.25 : 1"><path
         sodipodi:type="inkscape:box3dside"
         id="path4914"
         style="fill:#e9e9ff;fill-rule:evenodd;stroke:none;stroke-linejoin:round"
         inkscape:box3dsidetype="11"
         d="m 61.204187,92.411472 5.573741,-5.107869 v 17.274717 l -5.573741,3.66601 z"
         points="66.777928,87.303603 66.777928,104.57832 61.204187,108.24433 61.204187,92.411472 " /><path
         sodipodi:type="inkscape:box3dside"
         id="path4904"
         style="fill:#353564;fill-rule:evenodd;stroke:none;stroke-linejoin:round"
         inkscape:box3dsidetype="6"
         d="m 45.193298,86.376172 v 17.536518 l 16.010889,4.33164 V 92.411472 Z"
         points="45.193298,103.91269 61.204187,108.24433 61.204187,92.411472 45.193298,86.376172 " /><path
         sodipodi:type="inkscape:box3dside"
         id="path4906"
         style="fill:#4d4d9f;fill-rule:evenodd;stroke:none;stroke-linejoin:round"
         inkscape:box3dsidetype="5"
         d="m 45.193298,86.376172 4.603631,-6.328266 16.980999,7.255697 -5.573741,5.107869 z"
         points="49.796929,80.047906 66.777928,87.303603 61.204187,92.411472 45.193298,86.376172 " /><path
         sodipodi:type="inkscape:box3dside"
         id="path4912"
         style="fill:#afafde;fill-rule:evenodd;stroke:none;stroke-linejoin:round"
         inkscape:box3dsidetype="13"
         d="m 45.193298,103.91269 4.603631,-4.541902 16.980999,5.207532 -5.573741,3.66601 z"
         points="49.796929,99.370788 66.777928,104.57832 61.204187,108.24433 45.193298,103.91269 " /><path
         sodipodi:type="inkscape:box3dside"
         id="path4910"
         style="fill:#d7d7ff;fill-rule:evenodd;stroke:none;stroke-linejoin:round"
         inkscape:box3dsidetype="14"
         d="m 49.796929,80.047906 v 19.322882 l 16.980999,5.207532 V 87.303603 Z"
         points="49.796929,99.370788 66.777928,104.57832 66.777928,87.303603 49.796929,80.047906 " /><path
         sodipodi:type="inkscape:box3dside"
         id="path4908"
         style="fill:#8686bf;fill-rule:evenodd;stroke:none;stroke-linejoin:round"
         inkscape:box3dsidetype="3"
         d="m 45.193298,86.376172 4.603631,-6.328266 v 19.322882 l -4.603631,4.541902 z"
         points="49.796929,80.047906 49.796929,99.370788 45.193298,103.91269 45.193298,86.376172 " /></g><path
       sodipodi:type="star"
       style="fill:#0000ff;stroke:#f7f9fc;stroke-width:0.264583;stroke-opacity:1"
       id="path4968"
       inkscape:flatsided="false"
       sodipodi:sides="5"
       sodipodi:cx="104.63087"
       sodipodi:cy="55.263546"
       sodipodi:r1="4.4349728"
       sodipodi:r2="2.2174864"
       sodipodi:arg1="1.9433003"
       sodipodi:arg2="2.5716188"
       inkscape:rounded="0"
       inkscape:randomized="0"
       d="m 103.01676,59.394364 -0.25283,-2.93424 -2.56049,-1.455188 2.7125,-1.147188 0.59273,-2.88485 1.92925,2.225239 2.92682,-0.327747 -1.52016,2.522461 1.21614,2.682291 -2.86875,-0.666272 z"
       inkscape:transform-center-x="0.34677927"
       inkscape:transform-center-y="-0.079915666" /><path
       sodipodi:type="star"
       style="fill:#00ffff;stroke:#f7f9fc;stroke-width:0.264583;stroke-opacity:1"
       id="path4970"
       inkscape:flatsided="false"
       sodipodi:sides="5"
       sodipodi:cx="145.77618"
       sodipodi:cy="141.76755"
       sodipodi:r1="4.2282448"
       sodipodi:r2="2.1141224"
       sodipodi:arg1="1.2453492"
       sodipodi:arg2="1.8736677"
       inkscape:rounded="0"
       inkscape:randomized="0"
       d="m 147.12809,145.77384 -1.98247,-1.9884 -2.76189,0.50586 1.27847,-2.49989 -1.33457,-2.47039 2.7726,0.44338 1.93708,-2.03264 0.4351,2.77391 2.53175,1.21415 -2.5037,1.27099 z"
       inkscape:transform-center-x="-0.38970728"
       inkscape:transform-center-y="-0.014750215" /><path
       sodipodi:type="star"
       style="fill:#00ff00;stroke:#f7f9fc;stroke-width:0.264583;stroke-opacity:1"
       id="path4972"
       inkscape:flatsided="false"
       sodipodi:sides="5"
       sodipodi:cx="18.233229"
       sodipodi:cy="168.35268"
       sodipodi:r1="2.9472868"
       sodipodi:r2="1.4736434"
       sodipodi:arg1="1.710791"
       sodipodi:arg2="2.3391096"
       inkscape:rounded="0"
       inkscape:randomized="0"
       d="m 17.821971,171.27113 -0.612812,-1.85878 -1.87863,-0.54895 1.578436,-1.15721 -0.05844,-1.95632 1.588338,1.14358 1.842509,-0.66012 -0.596789,1.86399 1.197178,1.54834 -1.957173,0.008 z"
       inkscape:transform-center-x="0.12708599"
       inkscape:transform-center-y="0.15781958" /><g
       style="fill:#8cc84b"
       id="g6858"
       transform="matrix(0.52916667,0,0,0.52916667,155.3308,171.54138)"><path
         d="m 14.656,0.427 c 0.8,-0.453 1.82,-0.455 2.6,0 L 29.2,7.16 c 0.747,0.42 1.247,1.253 1.24,2.114 v 13.5 c 0.005,0.897 -0.544,1.748 -1.332,2.16 l -11.88,6.702 a 2.6,2.6 0 0 1 -2.639,-0.073 l -3.565,-2.06 c -0.243,-0.145 -0.516,-0.26 -0.688,-0.495 0.152,-0.204 0.422,-0.23 0.642,-0.32 0.496,-0.158 0.95,-0.4 1.406,-0.656 0.115,-0.08 0.256,-0.05 0.366,0.022 l 3.04,1.758 c 0.217,0.125 0.437,-0.04 0.623,-0.145 l 11.665,-6.583 c 0.144,-0.07 0.224,-0.222 0.212,-0.38 V 9.334 C 28.306,9.154 28.203,8.99 28.04,8.917 L 16.19,2.244 A 0.41,0.41 0 0 0 15.725,2.243 L 3.892,8.93 c -0.16,0.073 -0.27,0.235 -0.25,0.415 v 13.37 c -0.014,0.158 0.07,0.307 0.215,0.375 l 3.162,1.785 c 0.594,0.32 1.323,0.5 1.977,0.265 A 1.5,1.5 0 0 0 9.967,23.731 L 9.97,10.441 c -0.014,-0.197 0.172,-0.36 0.363,-0.34 h 1.52 c 0.2,-0.005 0.357,0.207 0.33,0.405 L 12.18,23.88 c 10e-4,1.188 -0.487,2.48 -1.586,3.063 -1.354,0.7 -3.028,0.553 -4.366,-0.12 l -3.4,-1.88 c -0.8,-0.4 -1.337,-1.264 -1.332,-2.16 V 9.283 A 2.46,2.46 0 0 1 2.778,7.142 Z M 18.1,9.785 c 1.727,-0.1 3.576,-0.066 5.13,0.785 1.203,0.652 1.87,2.02 1.892,3.358 -0.034,0.18 -0.222,0.28 -0.394,0.267 -0.5,-10e-4 -1.002,0.007 -1.504,-0.003 -0.213,0.008 -0.336,-0.188 -0.363,-0.376 -0.144,-0.64 -0.493,-1.273 -1.095,-1.582 -0.924,-0.463 -1.996,-0.44 -3.004,-0.43 -0.736,0.04 -1.527,0.103 -2.15,0.535 -0.48,0.328 -0.624,1 -0.453,1.522 0.16,0.383 0.603,0.506 0.964,0.62 2.082,0.544 4.287,0.5 6.33,1.207 0.845,0.292 1.672,0.86 1.962,1.745 0.378,1.186 0.213,2.604 -0.63,3.556 -0.684,0.784 -1.68,1.2 -2.675,1.442 -1.323,0.295 -2.695,0.302 -4.038,0.17 -1.263,-0.144 -2.577,-0.476 -3.552,-1.336 -0.834,-0.724 -1.24,-1.852 -1.2,-2.94 0.01,-0.184 0.193,-0.312 0.37,-0.297 h 1.5 c 0.202,-0.014 0.35,0.16 0.36,0.35 0.093,0.6 0.322,1.25 0.854,1.6 1.026,0.662 2.313,0.616 3.487,0.635 0.973,-0.043 2.065,-0.056 2.86,-0.7 0.42,-0.367 0.543,-0.98 0.43,-1.508 -0.123,-0.446 -0.6,-0.653 -1,-0.8 -2.055,-0.65 -4.285,-0.414 -6.32,-1.15 -0.826,-0.292 -1.625,-0.844 -1.942,-1.693 -0.443,-1.2 -0.24,-2.687 0.693,-3.607 0.9,-0.915 2.22,-1.268 3.47,-1.394 z"
         id="path6849" /></g><g
       id="g6919"
       transform="matrix(0.52916667,0,0,0.52916667,-8.4667439,176.71277)"><path
         d="m 15.9,0.087 0.854,1.604 c 0.192,0.296 0.4,0.558 0.645,0.802 0.715,0.715 1.394,1.464 2.004,2.266 1.447,1.9 2.423,4.01 3.12,6.292 0.418,1.394 0.645,2.824 0.662,4.27 0.07,4.323 -1.412,8.035 -4.4,11.12 -0.488,0.488 -1.01,0.94 -1.57,1.342 -0.296,0 -0.436,-0.227 -0.558,-0.436 -0.227,-0.383 -0.366,-0.82 -0.436,-1.255 -0.105,-0.523 -0.174,-1.046 -0.14,-1.586 V 24.262 C 16.057,24.21 15.796,0.21 15.9,0.087 Z"
         fill="#599636"
         id="path6904" /><path
         d="m 15.9,0.034 c -0.035,-0.07 -0.07,-0.017 -0.105,0.017 0.017,0.35 -0.105,0.662 -0.296,0.96 -0.21,0.296 -0.488,0.523 -0.767,0.767 -1.55,1.342 -2.77,2.963 -3.747,4.776 -1.3,2.44 -1.97,5.055 -2.16,7.808 -0.087,0.993 0.314,4.497 0.627,5.508 0.854,2.684 2.388,4.933 4.375,6.885 0.488,0.47 1.01,0.906 1.55,1.325 0.157,0 0.174,-0.14 0.21,-0.244 a 4.78,4.78 0 0 0 0.157,-0.68 l 0.35,-2.614 z"
         fill="#6cac48"
         id="path6906" /><path
         d="m 16.754,28.845 c 0.035,-0.4 0.227,-0.732 0.436,-1.063 -0.21,-0.087 -0.366,-0.26 -0.488,-0.453 -0.105,-0.174 -0.192,-0.383 -0.26,-0.575 -0.244,-0.732 -0.296,-1.5 -0.366,-2.248 v -0.453 c -0.087,0.07 -0.105,0.662 -0.105,0.75 a 17.37,17.37 0 0 1 -0.314,2.353 c -0.052,0.314 -0.087,0.627 -0.28,0.906 0,0.035 0,0.07 0.017,0.122 0.314,0.924 0.4,1.865 0.453,2.824 v 0.35 c 0,0.418 -0.017,0.33 0.33,0.47 0.14,0.052 0.296,0.07 0.436,0.174 0.105,0 0.122,-0.087 0.122,-0.157 L 16.683,31.27 v -1.604 c -0.017,-0.28 0.035,-0.558 0.07,-0.82 z"
         fill="#c2bfbf"
         id="path6908" /></g><g
       transform="matrix(0.05668116,0,0,0.05668116,46.420396,121.38702)"
       id="g7990"><g
         class="E"
         id="g7872"><path
           d="m 61.524,172.734 c 3.256,7.09 6.89,14.003 10.12,21.106 6.216,13.67 10.937,28.103 12.898,42.99 1.961,14.887 1.108,30.26 -3.542,44.534 -5.258,16.113 -15.24,30.448 -27.47,42.18 -14.468,13.88 -33.04,24.58 -53.074,25.37 -13.054,0.514 -26.05,-3.218 -37.61,-9.303 -9.715,-5.113 -18.584,-11.927 -25.66,-20.32 -7.076,-8.393 -12.33,-18.387 -14.763,-29.093 -2.996,-13.183 -1.64,-27.178 2.894,-39.914 3.243,-9.108 8.05,-17.588 11.472,-26.63 3.74,-9.88 5.828,-20.43 10.783,-29.76 4.49,-8.46 11.226,-15.686 14.804,-24.57 2.137,-5.306 3.064,-11.005 4.444,-16.557 1.38,-5.552 3.312,-11.144 7.07,-15.457 4.53,-5.197 11.343,-8.014 18.19,-8.805 6.847,-0.791 13.778,0.277 20.498,1.81 5.35,1.22 10.635,2.735 15.805,4.574 4.413,1.57 8.786,3.398 12.602,6.114 5.2,3.7 9.16,8.91 12.315,14.458 3.155,5.548 5.57,11.475 8.234,17.274 z"
           id="path7866" /><path
           d="m 4.036,349.04 c 5.5,0.32 10.99,0.854 16.44,1.677 a 165.46,165.46 0 0 1 14.26,2.812 c 7.377,1.788 14.728,4.068 22.316,4.284 1.997,0.057 4,-0.032 5.96,-0.466 1.96,-0.434 3.842,-1.225 5.405,-2.47 2.33,-1.857 3.8,-4.658 4.357,-7.587 0.557,-2.929 0.208,-5.976 -0.65,-8.83 -1.715,-5.706 -5.4,-10.575 -8.437,-15.696 -1.745,-2.932 -3.3,-5.98 -5.19,-8.82 -1.89,-2.84 -4.15,-5.5 -7.02,-7.35 -3.968,-2.558 -8.888,-3.392 -13.585,-2.924 -4.697,0.468 -9.2,2.165 -13.392,4.336 -5.876,3.042 -11.407,7.22 -14.61,13.01 -1.115,2.015 -1.925,4.18 -2.872,6.28 -0.947,2.1 -2.056,4.166 -3.66,5.818 -1.79,1.842 -4.112,3.084 -5.963,4.863 -0.925,0.9 -1.735,1.925 -2.2,3.118 -0.465,1.193 -0.592,2.556 -0.16,3.765 0.297,0.83 0.84,1.558 1.51,2.13 0.67,0.572 1.462,0.99 2.293,1.28 1.66,0.584 3.45,0.67 5.207,0.772 z"
           id="path7868" /><path
           d="m -12.313,348.685 c -4.584,0.106 -9.12,0.926 -13.6,1.854 -4.292,0.887 -8.564,1.875 -12.804,2.988 -7.154,1.878 -14.317,4.127 -21.712,4.284 -1.946,0.04 -3.906,-0.065 -5.803,-0.504 -1.897,-0.439 -3.733,-1.22 -5.255,-2.434 -2.325,-1.854 -3.803,-4.65 -4.35,-7.572 -0.547,-2.922 -0.213,-5.964 0.635,-8.814 1.697,-5.7 5.336,-10.58 8.316,-15.726 1.693,-2.925 3.187,-5.966 5.018,-8.807 1.831,-2.841 4.036,-5.507 6.86,-7.364 3.848,-2.53 8.647,-3.387 13.23,-2.936 4.583,0.451 8.975,2.14 13.017,4.348 5.706,3.117 10.917,7.406 14.216,13 2.315,3.93 3.65,8.425 6.356,12.098 1.457,1.978 3.3,3.686 4.5,5.823 0.606,1.068 1.05,2.245 1.153,3.47 0.103,1.225 -0.15,2.498 -0.84,3.515 -0.455,0.673 -1.087,1.217 -1.793,1.618 -0.706,0.401 -1.485,0.665 -2.28,0.83 -1.6,0.332 -3.23,0.28 -4.855,0.32 z M -37.927,157.8 c -0.644,-7.75 -0.5,-15.543 -0.78,-23.315 -0.278,-7.473 -0.966,-14.942 -0.715,-22.416 0.256,-7.6 1.53,-15.3 4.914,-22.13 3.384,-6.83 8.88,-12.608 15.585,-16.222 6.3,-3.4 13.566,-4.853 20.734,-4.775 9.72,0.106 19.464,3.042 27.334,8.744 4.935,3.572 9.085,8.177 12.359,13.314 2.793,4.385 4.963,9.174 6.325,14.2 2.793,10.3 2.13,21.148 2.674,31.796 0.515,10.092 2.13,20.16 1.58,30.25 -0.12,2.2 -0.356,4.434 -1.333,6.4 -0.952,1.915 -2.568,3.455 -4.425,4.517 -1.857,1.062 -3.947,1.666 -6.06,1.992 -4.227,0.652 -8.55,0.222 -12.808,0.617 -6.18,0.573 -12.075,2.865 -18.208,3.814 -7.3,1.13 -14.757,0.33 -22.148,0.034 -2.96,-0.118 -5.93,-0.155 -8.868,-0.524 -2.938,-0.369 -5.87,-1.08 -8.484,-2.474 -1.6,-0.858 -3.093,-1.975 -4.295,-3.35 -1.202,-1.375 -2.12,-3 -2.577,-4.777 -0.687,-2.653 -0.325,-5.446 -0.315,-8.187 0.01,-2.506 -0.282,-5.003 -0.5,-7.5 z"
           id="path7870" /></g><path
         d="m -26.296,154.814 c -1.046,1.31 -1.728,2.887 -2.14,4.514 -0.412,1.627 -0.562,3.308 -0.627,4.984 -0.128,3.353 0.076,6.77 -0.81,10.006 -0.95,3.46 -3.076,6.456 -5.158,9.378 -3.605,5.06 -7.25,10.25 -9.027,16.202 -1.077,3.605 -1.436,7.423 -1.048,11.165 -4.035,5.926 -7.53,12.22 -10.423,18.78 -4.386,9.942 -7.396,20.527 -8.455,31.34 -1.296,13.242 0.398,26.862 5.627,39.097 3.78,8.846 9.418,16.944 16.686,23.247 3.695,3.205 7.8,5.94 12.2,8.097 15.213,7.477 34.013,7.49 48.973,-0.48 7.818,-4.166 14.418,-10.258 20.78,-16.422 3.832,-3.712 7.644,-7.512 10.567,-11.976 5.627,-8.592 7.587,-19.036 8.805,-29.234 2.13,-17.833 2.198,-36.67 -5.62,-52.838 A 58.29,58.29 0 0 0 43.453,205.533 c -1.145,-7.78 -3.406,-15.397 -6.692,-22.542 -2.37,-5.155 -5.268,-10.062 -7.47,-15.29 -0.904,-2.147 -1.7,-4.345 -2.693,-6.447 -0.993,-2.102 -2.24,-4.125 -3.924,-5.735 -1.723,-1.65 -3.87,-2.818 -6.136,-3.566 -2.266,-0.748 -4.65,-1.087 -7.03,-1.207 -4.765,-0.24 -9.54,0.383 -14.306,0.194 -3.795,-0.15 -7.578,-0.816 -11.37,-0.592 -1.896,0.112 -3.79,0.45 -5.55,1.165 -1.76,0.715 -3.382,1.817 -4.566,3.3 z"
         fill="#fdfdfb"
         id="path7874" /><path
         d="m -28.632,172.6 c 1.703,4.938 5.13,9.152 9.186,12.444 1.35,1.095 2.782,2.104 4.366,2.817 1.584,0.713 3.332,1.12 5.062,0.972 1.695,-0.144 3.307,-0.81 4.79,-1.646 1.483,-0.836 2.856,-1.847 4.293,-2.757 2.463,-1.56 5.1,-2.82 7.657,-4.22 3.082,-1.687 6.07,-3.6 8.665,-5.96 1.188,-1.085 2.296,-2.268 3.608,-3.2 1.312,-0.932 2.883,-1.606 4.488,-1.497 1.204,0.082 2.333,0.594 3.512,0.848 0.6,0.127 1.2,0.19 1.797,0.098 0.597,-0.092 1.18,-0.344 1.598,-0.78 0.512,-0.533 0.736,-1.3 0.7,-2.04 -0.036,-0.74 -0.284,-1.453 -0.63,-2.107 -0.69,-1.308 -1.735,-2.435 -2.2,-3.838 -0.414,-1.25 -0.33,-2.6 -0.294,-3.914 0.036,-1.314 0.008,-2.69 -0.6,-3.857 -0.462,-0.89 -1.236,-1.595 -2.122,-2.064 -0.886,-0.469 -1.88,-0.7 -2.876,-0.804 -1.995,-0.187 -3.994,0.2 -5.994,0.313 -2.656,0.15 -5.322,-0.182 -7.977,-0.022 -3.31,0.2 -6.557,1.16 -9.874,1.166 -3.786,0.007 -7.568,-1.232 -11.308,-0.64 -1.605,0.254 -3.135,0.838 -4.676,1.352 -1.541,0.514 -3.133,0.967 -4.757,0.944 -1.844,-0.027 -3.63,-0.665 -5.47,-0.797 -0.92,-0.066 -1.862,0 -2.726,0.323 -0.864,0.323 -1.645,0.924 -2.068,1.743 -0.243,0.47 -0.363,0.997 -0.386,1.525 -0.023,0.528 0.05,1.057 0.178,1.57 0.255,1.026 0.724,1.983 1.1,2.967 1.393,3.554 1.692,7.448 2.937,11.056 z"
         fill-opacity="0.26"
         filter="url(#z)"
         id="path7876" /><path
         d="m -54.38,165.474 c 3.308,2.22 6.277,4.944 8.77,8.052 2.313,2.884 4.28,6.154 7.3,8.29 2.133,1.508 4.695,2.358 7.294,2.616 3.052,0.303 6.14,-0.187 9.082,-1.052 2.727,-0.802 5.363,-1.93 7.782,-3.42 4.598,-2.836 8.44,-6.993 13.5,-8.857 1.107,-0.407 2.26,-0.698 3.327,-1.2 1.067,-0.502 2.07,-1.254 2.58,-2.318 0.5,-1.022 0.47,-2.202 0.63,-3.325 0.17,-1.2 0.554,-2.362 0.764,-3.556 0.21,-1.194 0.235,-2.472 -0.28,-3.57 -0.428,-0.91 -1.205,-1.628 -2.1,-2.085 -0.895,-0.457 -1.9,-0.664 -2.904,-0.714 -2.006,-0.1 -3.988,0.415 -5.988,0.598 -2.65,0.242 -5.318,-0.1 -7.977,-0.02 -3.308,0.1 -6.568,0.85 -9.874,1.005 -3.772,0.178 -7.534,-0.418 -11.308,-0.55 -1.632,-0.058 -3.275,-0.03 -4.884,0.253 -1.609,0.283 -3.188,0.822 -4.55,1.726 -1.32,0.877 -2.397,2.067 -3.607,3.09 -0.605,0.512 -1.248,0.985 -1.954,1.345 -0.706,0.36 -1.48,0.605 -2.27,0.643 -0.407,0.02 -0.818,-0.015 -1.22,0.047 a 2.59,2.59 0 0 0 -2.121,3.005 z"
         transform="matrix(1,0,0,0.921106,21,6.107506)"
         opacity="0.3"
         filter="url(#y)"
         id="path7878" /><path
         d="m -24.768,113.362 c -1.78,0.097 -3.485,0.92 -4.788,2.137 -1.303,1.217 -2.22,2.812 -2.786,4.504 -1.13,3.384 -0.875,7.052 -0.62,10.6 0.233,3.222 0.47,6.505 1.677,9.502 0.603,1.498 1.45,2.9 2.58,4.064 1.13,1.164 2.552,2.042 4.118,2.434 1.47,0.368 3.038,0.292 4.483,-0.162 1.445,-0.454 2.764,-1.28 3.846,-2.338 1.58,-1.545 2.643,-3.566 3.253,-5.69 0.61,-2.124 0.784,-4.352 0.752,-6.56 -0.04,-2.764 -0.4,-5.54 -1.266,-8.164 -0.866,-2.624 -2.246,-5.103 -4.173,-7.086 -0.933,-0.96 -1.998,-1.805 -3.2,-2.397 -1.202,-0.592 -2.543,-0.925 -3.88,-0.853 z"
         fill="url(#AA)"
         id="path7880"
         style="fill:url(#AA)" /><path
         d="m 6.75,113.362 c -2.78,1.9 -5.11,4.575 -6.25,7.75 -1.436,4.002 -0.886,8.48 0.5,12.5 1.42,4.117 3.794,8.04 7.38,10.512 1.793,1.236 3.868,2.083 6.03,2.34 2.162,0.257 4.41,-0.095 6.34,-1.1 2.353,-1.226 4.148,-3.373 5.262,-5.78 1.114,-2.407 1.59,-5.07 1.738,-7.72 0.2,-3.375 -0.14,-6.806 -1.25,-10 -1.205,-3.47 -3.4,-6.67 -6.473,-8.667 -1.54,-0.998 -3.292,-1.684 -5.11,-1.935 -1.818,-0.251 -3.705,-0.063 -5.416,0.602 -0.975,0.38 -1.887,0.907 -2.75,1.5 z"
         fill="url(#AB)"
         id="path7882"
         style="fill:url(#AB)" /><path
         d="m -25.36,142.154 -5.136,4.685 c -0.904,0.91 -1.81,1.884 -2.215,3.1 -0.36,1.08 -0.292,2.253 -0.47,3.38 -0.06,0.386 -0.15,0.77 -0.152,1.16 a 1.94,1.94 0 0 0 0.078,0.578 c 0.057,0.187 0.15,0.363 0.285,0.506 0.222,0.237 0.538,0.366 0.856,0.43 0.318,0.064 0.645,0.072 0.968,0.107 1.456,0.157 2.798,0.863 4.004,1.695 l 3.55,2.585 c 2.73,1.734 5.993,2.505 9.226,2.628 3.233,0.123 6.458,-0.37 9.63,-1.005 2.52,-0.504 5.034,-1.1 7.425,-2.044 3.663,-1.444 6.964,-3.667 10.118,-6.022 1.433,-1.07 2.846,-2.173 4.133,-3.415 0.437,-0.422 0.86,-0.86 1.328,-1.246 0.468,-0.386 0.988,-0.722 1.566,-0.908 0.88,-0.283 1.836,-0.202 2.748,-0.05 0.687,0.115 1.376,0.27 2.072,0.24 0.348,-0.014 0.697,-0.074 1.02,-0.204 0.323,-0.13 0.622,-0.33 0.843,-0.6 a 2.02,2.02 0 0 0 0.442,-1.272 c 0.002,-0.458 -0.14,-0.91 -0.37,-1.305 -0.465,-0.79 -1.268,-1.323 -2.105,-1.695 -1.146,-0.51 -2.386,-0.76 -3.606,-1.056 -3.745,-0.904 -7.385,-2.24 -10.836,-3.954 -1.716,-0.852 -3.384,-1.796 -5.072,-2.7 -1.736,-0.93 -3.505,-1.824 -5.39,-2.395 -4.213,-1.277 -8.82,-0.858 -12.977,0.586 -4.62,1.604 -8.797,4.463 -11.966,8.188 z"
         opacity="0.3"
         filter="url(#x)"
         id="path7884" /><path
         d="m -16.4,136.862 c 1.767,-1.987 2.976,-4.41 4.674,-6.457 0.85,-1.023 1.828,-1.955 2.982,-2.617 1.154,-0.662 2.492,-1.04 3.817,-0.926 1.474,0.128 2.855,0.862 3.934,1.875 1.079,1.013 1.88,2.3 2.52,3.625 0.612,1.278 1.098,2.64 1.98,3.75 0.94,1.184 2.26,1.992 3.45,2.923 0.596,0.465 1.167,0.97 1.638,1.56 0.471,0.59 0.84,1.276 0.99,2.017 A 4.21,4.21 0 0 1 9.4,144.879 c -0.262,0.72 -0.707,1.372 -1.26,1.904 -1.106,1.065 -2.614,1.64 -4.134,1.855 -3.04,0.43 -6.115,-0.476 -9.184,-0.39 -3.107,0.085 -6.142,1.184 -9.248,1.07 -1.553,-0.057 -3.128,-0.436 -4.404,-1.323 a 5.57,5.57 0 0 1 -1.596,-1.676 c -0.402,-0.665 -0.647,-1.43 -0.673,-2.206 -0.025,-0.74 0.148,-1.48 0.444,-2.16 0.296,-0.68 0.713,-1.302 1.182,-1.876 0.94,-1.148 2.087,-2.106 3.072,-3.214 z"
         fill="url(#AC)"
         id="path7886"
         style="fill:url(#AC)" /><path
         transform="matrix(1.152214,0,0,1.152214,-302.02706,-22.837384)"
         d="m 277.96,90.857 c -2.225,1.57 -1.253,3.53 -0.296,5.498 0.957,1.968 -2.104,7.64 -2.137,7.884 -0.033,0.244 6.025,-2.875 7.676,-4.902 1.95,-2.393 6.877,3.238 6.61,2.38 0.002,-1.533 -9.627,-12.43 -11.852,-10.86 z"
         filter="url(#w)"
         class="J"
         id="path7888" /><g
         transform="translate(-289,-9)"
         id="g7896"><path
           d="m 302.162,130.757 c -1.045,0.075 -2.064,0.432 -2.95,1 -0.886,0.568 -1.643,1.315 -2.237,2.18 -1.187,1.728 -1.71,3.847 -1.793,5.94 -0.063,1.572 0.11,3.165 0.632,4.65 0.522,1.485 1.4,2.86 2.613,3.863 1.24,1.027 2.816,1.644 4.425,1.72 1.609,0.076 3.24,-0.387 4.56,-1.307 1.053,-0.733 1.902,-1.742 2.507,-2.873 0.605,-1.131 0.97,-2.383 1.135,-3.655 0.294,-2.247 -0.038,-4.593 -1.077,-6.607 -1.039,-2.014 -2.8,-3.673 -4.927,-4.456 -0.92,-0.34 -1.91,-0.516 -2.888,-0.446 z"
           class="E"
           id="path7890" /><path
           d="m 304.656,137.612 c -0.866,0.342 -2.237,0.127 -2.616,0.977 -0.225,0.504 0.093,1.333 0.603,1.54 1.032,0.42 2.632,-0.34 3.05,-1.375 0.18,-0.45 -0.093,-1.16 -0.54,-1.35 -0.165,-0.07 -0.33,0.14 -0.496,0.206 z"
           fill="#141413"
           filter="url(#u)"
           id="path7892" /><path
           d="m 308.625,139.862 c 1.16,-1.16 -0.826,-4.24 -2.375,-5.5 -1.122,-0.913 -4.39,-1.87 -4.25,-0.875 0.14,0.995 1.6,2.266 2.595,3.237 1.212,1.195 3.48,3.69 4.03,3.138 z"
           fill="url(#AD)"
           filter="url(#v)"
           id="path7894"
           style="fill:url(#AD)" /></g><path
         d="m 75.25,132.487 a 23.71,23.71 0 0 1 8.122,-4.4 c 6.086,-1.88 13,-1.137 18.378,2.275 1.857,1.178 3.512,2.642 5.24,4.004 1.728,1.362 3.56,2.64 5.636,3.37 1.12,0.394 2.318,0.623 3.5,0.5 1.068,-0.112 2.1,-0.512 2.984,-1.12 0.884,-0.608 1.625,-1.418 2.18,-2.337 1.112,-1.837 1.47,-4.065 1.278,-6.203 -0.383,-4.277 -2.796,-8.053 -4.818,-11.84 -0.633,-1.186 -1.236,-2.393 -2,-3.5 -2.343,-3.396 -6.073,-5.636 -9.985,-6.948 -3.912,-1.312 -8.046,-1.786 -12.14,-2.302 -1.826,-0.23 -3.673,-0.47 -5.5,-0.25 -2.1,0.253 -4.076,1.1 -6.125,1.625 -0.973,0.25 -1.964,0.425 -2.928,0.704 -0.964,0.279 -1.913,0.67 -2.697,1.296 -1.145,0.916 -1.865,2.29 -2.177,3.723 -0.312,1.433 -0.24,2.924 -0.012,4.372 0.458,2.896 1.54,5.724 1.438,8.654 -0.07,2.012 -0.702,3.988 -0.625,6 0.023,0.6 0.107,1.177 0.25,1.75"
         clip-path="url(#t)"
         transform="translate(-79,-9)"
         fill="url(#AE)"
         id="path7898"
         style="fill:url(#AE)" /><path
         d="m 16.406,105.125 c -0.477,0.6 -0.908,1.252 -1.25,1.97 2.146,0.462 4.2,1.346 6.03,2.563 3.545,2.354 6.237,5.796 8.125,9.625 0.44,-0.488 0.842,-1.012 1.188,-1.594 -1.898,-3.988 -4.644,-7.595 -8.312,-10.03 -1.762,-1.17 -3.725,-2.054 -5.78,-2.53 z"
         fill="url(#AF)"
         filter="url(#s)"
         id="path7900"
         style="fill:url(#AF)" /><path
         d="m -24.97,107.08 c -0.242,-0.005 -0.477,0.017 -0.72,0.028 l -0.47,0.028 c 1.413,0.128 2.818,0.508 4.094,1.08 1.74,0.78 3.274,1.893 4.625,3.16 2.504,2.345 4.365,5.24 5.625,8.31 a 20.8,20.8 0 0 0 -2.062,-6.659 c -0.494,-0.57 -1.006,-1.13 -1.562,-1.65 -1.35,-1.266 -2.886,-2.378 -4.625,-3.16 -1.52,-0.683 -3.214,-1.108 -4.906,-1.138 z"
         fill="url(#AG)"
         filter="url(#r)"
         id="path7902"
         style="fill:url(#AG)" /><path
         d="m -29.06,128.112 c -0.372,2.246 -0.386,4.602 0.386,6.743 0.5,1.414 1.35,2.697 2.372,3.8 0.67,0.722 1.428,1.378 2.316,1.803 0.888,0.425 1.916,0.606 2.87,0.367 0.88,-0.22 1.652,-0.79 2.22,-1.497 0.568,-0.707 0.948,-1.553 1.218,-2.42 0.797,-2.56 0.67,-5.362 -0.122,-7.924 -0.577,-1.867 -1.532,-3.668 -3.027,-4.927 -0.713,-0.6 -1.548,-1.07 -2.455,-1.287 -0.907,-0.217 -1.89,-0.165 -2.738,0.22 -0.942,0.428 -1.672,1.243 -2.15,2.16 -0.478,0.917 -0.723,1.94 -0.892,2.96 z"
         class="E"
         id="path7904" /><path
         d="m 164.688,135.487 c 0.242,0.634 1.054,0.864 1.5,1.375 0.433,0.497 0.887,1.01 1.125,1.625 0.455,1.176 -0.45,2.92 0.5,3.75 0.298,0.26 0.895,0.266 1.188,0 1.145,-1.042 0.89,-3.144 0.438,-4.625 -0.41,-1.344 -1.427,-2.616 -2.68,-3.255 -0.58,-0.295 -1.45,-0.54 -1.946,-0.12 -0.32,0.27 -0.274,0.86 -0.125,1.25 z"
         fill="url(#AH)"
         filter="url(#p)"
         transform="translate(-189,-9)"
         id="path7906"
         style="fill:url(#AH)" /><g
         transform="translate(-79,-9)"
         id="g7926"><path
           d="m 45.752,165.032 c 0.06,0.295 0.173,0.58 0.327,0.84 0.266,0.445 0.654,0.806 1.073,1.11 0.419,0.304 0.873,0.56 1.312,0.835 2.334,1.467 4.235,3.53 5.925,5.707 2.267,2.922 4.272,6.165 7.3,8.29 2.138,1.5 4.696,2.355 7.294,2.616 3.05,0.307 6.14,-0.186 9.082,-1.052 2.726,-0.803 5.363,-1.93 7.782,-3.42 4.6,-2.836 8.44,-6.993 13.5,-8.857 1.107,-0.407 2.26,-0.698 3.326,-1.2 1.066,-0.502 2.07,-1.254 2.58,-2.318 0.5,-1.022 0.47,-2.202 0.63,-3.325 0.17,-1.2 0.554,-2.362 0.764,-3.556 0.21,-1.194 0.235,-2.472 -0.28,-3.57 -0.428,-0.91 -1.205,-1.628 -2.1,-2.085 -0.895,-0.457 -1.9,-0.664 -2.904,-0.714 -2.006,-0.1 -3.988,0.415 -5.988,0.598 -2.65,0.242 -5.318,-0.098 -7.977,-0.02 -3.308,0.1 -6.568,0.845 -9.874,1.005 -3.772,0.183 -7.535,-0.4 -11.308,-0.55 -1.634,-0.066 -3.28,-0.05 -4.892,0.225 -1.612,0.275 -3.195,0.824 -4.54,1.753 -1.31,0.906 -2.356,2.14 -3.56,3.184 -0.602,0.522 -1.25,1 -1.966,1.347 -0.716,0.347 -1.507,0.564 -2.304,0.547 -0.4,-0.01 -0.83,-0.077 -1.22,0.047 -0.244,0.077 -0.46,0.227 -0.644,0.406 -0.184,0.179 -0.335,0.387 -0.478,0.6 a 10.52,10.52 0 0 0 -0.867,1.558 z"
           fill="url(#AI)"
           id="path7908"
           style="fill:url(#AI)" /><path
           d="m 60.557,169.097 a 6.7,6.7 0 0 0 4.346,7.847 c 1.978,0.66 4.207,0.336 6.055,-0.628 1.07,-0.56 2.05,-1.346 2.67,-2.384 a 4.51,4.51 0 0 0 0.605,-1.696 c 0.08,-0.6 0.025,-1.22 -0.185,-1.785 -0.23,-0.62 -0.64,-1.168 -1.146,-1.596 -0.506,-0.428 -1.105,-0.738 -1.733,-0.946 -1.258,-0.416 -2.61,-0.424 -3.934,-0.36 a 38.86,38.86 0 0 0 -5.969,0.753"
           fill="#d9b30d"
           filter="url(#i)"
           id="path7910" /><path
           d="m 54.066,156.68 -3.898,2.563 c -0.657,0.466 -1.334,0.97 -1.68,1.696 -0.246,0.515 -0.302,1.1 -0.3,1.67 0.002,0.57 0.03,1.144 -0.046,1.7 -0.05,0.386 -0.154,0.766 -0.172,1.155 -0.01,0.195 0.005,0.39 0.056,0.58 a 1.2,1.2 0 0 0 0.275,0.509 c 0.173,0.183 0.408,0.296 0.65,0.37 0.242,0.074 0.49,0.11 0.736,0.17 1.175,0.276 2.197,0.997 3.094,1.804 l 2.64,2.476 c 2.537,2.064 5.9,2.92 9.16,2.973 3.26,0.053 6.504,-0.63 9.695,-1.35 l 7.425,-2.044 c 3.703,-1.365 7.14,-3.432 10.118,-6.022 1.35,-1.174 2.617,-2.464 4.133,-3.415 1.34,-0.842 2.843,-1.398 4.206,-2.203 0.122,-0.072 0.243,-0.146 0.352,-0.237 0.109,-0.091 0.206,-0.198 0.27,-0.325 0.11,-0.22 0.11,-0.48 0.04,-0.716 -0.07,-0.236 -0.206,-0.444 -0.36,-0.634 -0.17,-0.21 -0.363,-0.402 -0.57,-0.578 -1.424,-1.22 -3.357,-1.662 -5.226,-1.81 -1.869,-0.148 -3.76,-0.043 -5.6,-0.352 -1.74,-0.3 -3.393,-0.94 -5.072,-1.477 a 37.34,37.34 0 0 0 -5.389,-1.31 c -4.295,-0.7 -8.717,-0.566 -12.977,0.32 -4.058,0.845 -7.97,2.37 -11.54,4.48 z"
           fill="#604405"
           filter="url(#j)"
           id="path7912" /><path
           d="m 53.64,152.154 c -1.93,1.3 -3.666,2.883 -5.136,4.685 -0.84,1.03 -1.604,2.15 -2.027,3.412 -0.333,0.992 -0.446,2.042 -0.656,3.067 -0.08,0.384 -0.17,0.77 -0.17,1.16 10e-4,0.196 0.026,0.393 0.086,0.58 0.06,0.187 0.158,0.362 0.294,0.503 0.225,0.234 0.54,0.36 0.858,0.426 0.318,0.066 0.644,0.075 0.966,0.112 1.455,0.165 2.794,0.872 4,1.702 l 3.554,2.578 c 2.734,1.73 5.995,2.498 9.227,2.623 3.232,0.125 6.457,-0.366 9.63,-1 2.52,-0.503 5.034,-1.1 7.425,-2.044 3.662,-1.444 6.964,-3.667 10.118,-6.022 1.433,-1.07 2.846,-2.173 4.133,-3.415 0.437,-0.422 0.86,-0.86 1.328,-1.246 0.468,-0.386 0.988,-0.722 1.566,-0.908 0.88,-0.283 1.836,-0.202 2.748,-0.05 0.687,0.115 1.376,0.27 2.072,0.24 0.348,-0.014 0.697,-0.074 1.02,-0.204 0.323,-0.13 0.622,-0.33 0.843,-0.6 a 2.02,2.02 0 0 0 0.442,-1.272 c 0.002,-0.458 -0.14,-0.91 -0.37,-1.305 -0.465,-0.79 -1.268,-1.323 -2.105,-1.695 -1.146,-0.51 -2.386,-0.76 -3.606,-1.056 -3.745,-0.904 -7.385,-2.24 -10.836,-3.954 -1.716,-0.852 -3.384,-1.796 -5.072,-2.7 -1.736,-0.93 -3.505,-1.824 -5.39,-2.395 -4.213,-1.277 -8.82,-0.858 -12.977,0.586 -4.62,1.604 -8.797,4.463 -11.966,8.188 z"
           fill="url(#AJ)"
           id="path7914"
           style="fill:url(#AJ)" /><path
           d="m 83.24,153.08 c -0.226,-0.286 -0.55,-0.488 -0.9,-0.59 -0.35,-0.102 -0.725,-0.1 -1.084,-0.05 -0.72,0.123 -1.364,0.5 -1.966,0.925 -1.71,1.176 -3.22,2.628 -4.537,4.23 -1.745,2.12 -3.185,4.572 -3.668,7.275 -0.08,0.455 -0.135,0.92 -0.078,1.38 0.057,0.46 0.233,0.915 0.56,1.243 0.286,0.288 0.676,0.464 1.078,0.522 0.402,0.058 0.816,0.002 1.2,-0.128 0.77,-0.26 1.41,-0.8 2.014,-1.34 3.336,-2.985 6.353,-6.568 7.56,-10.88 0.12,-0.433 0.224,-0.876 0.22,-1.325 -0.004,-0.449 -0.12,-0.91 -0.398,-1.262 z"
           fill="#f6da4a"
           filter="url(#k)"
           id="path7916" /><path
           d="m 75.25,146.9 c 0.23,0.742 1.428,0.62 2.12,0.975 0.607,0.312 1.094,0.997 1.777,1.017 0.65,0.02 1.664,-0.225 1.75,-0.87 0.112,-0.853 -1.134,-1.395 -1.935,-1.708 -1.03,-0.402 -2.353,-0.606 -3.32,-0.068 -0.222,0.123 -0.464,0.412 -0.388,0.655 z"
           opacity="0.8"
           fill="url(#AK)"
           filter="url(#m)"
           id="path7918"
           style="fill:url(#AK)" /><path
           d="m 63.827,146.47 c -0.888,-0.29 -2.357,1.277 -1.878,2.08 0.132,0.22 0.535,0.5 0.806,0.35 0.41,-0.225 0.744,-1.03 1.187,-1.345 0.296,-0.21 0.23,-0.972 -0.116,-1.084 z"
           opacity="0.8"
           fill="url(#AL)"
           filter="url(#n)"
           id="path7920"
           style="fill:url(#AL)" /><ellipse
           transform="matrix(1.095622,0,-0.170179,1.518131,-136.24431,-82.11746)"
           cx="243.297"
           cy="158.284"
           rx="2.608"
           ry="2.3280001"
           fill="url(#AM)"
           filter="url(#o)"
           id="ellipse7922"
           style="fill:url(#AM)" /><path
           d="m 50.392,129.527 c 2.685,-1.6 5.955,-1.97 9.067,-1.676 3.112,0.294 6.125,1.208 9.14,2.03 2.212,0.602 4.452,1.16 6.525,2.138 2.073,0.978 4,2.416 5.142,4.403 l 0.54,0.962 c 0.194,0.312 0.423,0.61 0.716,0.83 0.293,0.22 0.657,0.364 1.024,0.344 0.184,-0.01 0.366,-0.06 0.524,-0.154 0.158,-0.094 0.293,-0.23 0.378,-0.392 0.098,-0.187 0.128,-0.404 0.117,-0.616 a 2.94,2.94 0 0 0 -0.117,-0.622 c -0.755,-2.753 -2.535,-5.088 -3.89,-7.6 l -2.298,-4.596 c -2.818,-5.16 -7.444,-9.216 -12.7,-11.847 -5.256,-2.631 -11.127,-3.896 -16.997,-4.24 -6.8,-0.398 -13.62,0.41 -20.33,1.59 -2.91,0.512 -5.86,1.115 -8.436,2.562 -1.287,0.723 -2.467,1.657 -3.388,2.81 -0.921,1.153 -1.576,2.535 -1.788,3.997 -0.204,1.41 0.01,2.86 0.5,4.196 0.49,1.336 1.258,2.558 2.157,3.662 1.797,2.208 4.1,3.934 6.222,5.83 2.122,1.896 4.1,3.992 6.463,5.563 1.186,0.785 2.473,1.435 3.843,1.817 1.37,0.382 2.83,0.49 4.224,0.204 1.445,-0.296 2.783,-1.005 3.954,-1.902 1.171,-0.897 2.186,-1.98 3.148,-3.098 1.925,-2.236 3.723,-4.686 6.257,-6.196 z"
           clip-path="url(#h)"
           fill="url(#AN)"
           id="path7924"
           style="fill:url(#AN)" /></g><path
         d="m 66.102,216.45 c 6.085,4.895 9.946,12.286 11.14,20.003 0.932,6.02 0.326,12.195 -1.03,18.132 -1.356,5.937 -3.452,11.676 -5.532,17.4 -0.83,2.283 -1.662,4.587 -1.992,6.993 -0.33,2.406 -0.12,4.954 1.04,7.088 1.33,2.446 3.813,4.13 6.482,4.923 2.635,0.783 5.48,0.766 8.148,0.102 2.668,-0.664 5.157,-1.963 7.328,-3.65 5.516,-4.283 8.844,-10.95 10.132,-17.812 1.288,-6.862 0.696,-13.95 -0.5,-20.83 -1.633,-9.38 -4.382,-18.55 -7.88,-27.408 -2.573,-6.515 -5.584,-12.92 -9.79,-18.52 -4.117,-5.48 -9.307,-10.093 -13.34,-15.635 -2.803,-3.85 -5.048,-8.15 -8.406,-11.526 -1.68,-1.688 -3.64,-3.132 -5.86,-3.995 -2.22,-0.863 -4.713,-1.116 -7.005,-0.47 -3.02,0.85 -5.5,3.23 -6.803,6.082 -1.303,2.852 -1.543,6.123 -1.032,9.22 0.66,3.995 2.486,7.703 4.546,11.19 2.327,3.937 5.022,7.727 8.536,10.654 3.667,3.055 8.102,5.07 11.82,8.06 z"
         class="E"
         id="path7928" /><path
         transform="matrix(1.018073,0,0,1,-244.25531,-9.000002)"
         clip-path="url(#f)"
         d="m 290.78,216.018 1.5,1.375 c 3.667,3.055 5.62,6.485 9.338,9.477 6.085,4.895 12.26,13.344 13.454,21.06 0.932,6.02 -0.3,9.29 -1.805,16.388 -1.505,7.098 -5.77,17.148 -8.074,23.992 -0.92,2.73 1.86,1.603 1.496,4.48 a 17.72,17.72 0 0 0 -0.035,4.259 l 0.07,-0.822 c 0.443,-3.923 1.623,-7.695 2.91,-11.395 2.474,-7.122 5.314,-14.1 7.272,-21.408 1.958,-7.308 1.74,-12.564 0.72,-18.844 -1.285,-7.896 -5.797,-15.187 -12.187,-20 -4.52,-3.403 -9.847,-5.585 -14.656,-8.562 z"
         fill="#838384"
         filter="url(#g)"
         id="path7930" /><path
         d="m -61.003,211.593 c 0.88,1.524 -0.547,6.778 19.964,3.415 0,0 -3.602,0.457 -7.153,1.404 -5.52,2.133 -10.33,4.517 -14.04,7.675 -3.676,3.122 -6.367,7.197 -9.74,10.697 0,0 5.462,-11.52 6.823,-14.987 1.361,-3.467 -0.228,-3.3 0.85,-8.414 1.078,-5.114 3.713,-10.007 3.713,-10.007 0,0 -2.152,7.21 -0.417,10.216 z"
         transform="matrix(1.154304,0,0,1,27.33247,-9.000002)"
         opacity="0.25"
         fill="url(#AO)"
         filter="url(#e)"
         id="path7932"
         style="fill:url(#AO)" /><path
         d="m 33.05,201.218 c -4.825,3.36 -7.652,2.963 -13.507,3.62 -5.855,0.657 -21.698,0.42 -21.698,0.42 0,0 2.294,-0.043 7.378,0.904 5.084,0.947 15.453,1.852 21.292,4.075 5.839,2.223 7.968,2.857 11.517,5.1 5.05,3.194 8.758,8.197 13.587,11.697 0,0 0.234,-4.644 -1.716,-8.112 -1.95,-3.468 -7.2,-8.935 -8.732,-14.04 -1.532,-5.105 -2.274,-15.132 -2.274,-15.132 0,0 -1.02,8.105 -5.846,11.466 z"
         opacity="0.42"
         fill="url(#AP)"
         filter="url(#d)"
         id="path7934"
         style="fill:url(#AP)" /><path
         d="m -12.33,194.04 -0.697,4.344 c -0.14,0.71 -0.295,1.42 -0.56,2.093 -0.265,0.673 -0.644,1.312 -1.18,1.796 -0.47,0.424 -1.044,0.716 -1.62,0.98 -2.248,1.03 -4.654,1.713 -7.108,2.02 l 2.935,0.268 c 0.615,0.067 1.232,0.142 1.832,0.296 0.6,0.154 1.185,0.4 1.684,0.755 0.548,0.4 0.978,0.948 1.3,1.546 0.64,1.192 0.854,2.563 0.973,3.9 0.15,1.723 0.162,3.46 0.033,5.184 0.116,-1.154 0.358,-2.296 0.72,-3.398 0.653,-1.986 1.704,-3.848 3.12,-5.386 0.562,-0.61 1.18,-1.17 1.86,-1.648 a 10.29,10.29 0 0 1 7.236,-1.761 11.24,11.24 0 0 1 -7.194,-2.233 c -1.042,-0.785 -1.95,-1.763 -2.58,-2.905 a 8.11,8.11 0 0 1 -0.751,-5.861 z"
         opacity="0.2"
         fill="url(#AQ)"
         filter="url(#c)"
         id="path7936"
         style="fill:url(#AQ)" /><path
         d="m -18.5,228.08 a 88.71,88.71 0 0 0 -2.526,14.277 c -0.637,6.812 -0.484,13.672 -0.85,20.505 -0.3,5.798 -0.99,11.656 0.016,17.374 0.48,2.727 1.343,5.385 2.555,7.875 a 26.9,26.9 0 0 0 0.422,-2.876 c 0.427,-4.636 -0.354,-9.287 -0.618,-13.935 -0.462,-8.147 0.666,-16.3 1.125,-24.438 a 149.28,149.28 0 0 0 -0.125,-18.781 z"
         opacity="0.1"
         filter="url(#a)"
         id="path7938" /><path
         d="m 37.688,157.862 c -2.162,1.97 1.014,4.928 2.52,8.404 0.936,2.16 3.527,5.205 6.032,4.718 1.885,-0.367 3.054,-3.08 2.876,-4.99 -0.344,-3.69 -3.457,-4.553 -5.717,-5.82 -1.79,-1.004 -4.193,-3.694 -5.71,-2.31 z"
         fill="#838384"
         filter="url(#Z)"
         id="path7940" /><g
         transform="translate(21,-9)"
         id="g7954"><path
           d="m 86.056,328.132 a 16.61,16.61 0 0 1 -2.05,4.411 c -1.98,3.012 -4.854,5.28 -7.727,7.37 -4.9,3.566 -10.003,6.838 -14.563,10.9 -3.056,2.715 -5.84,5.76 -8.423,8.965 -2.208,2.74 -4.284,5.62 -6.8,8.057 -2.54,2.46 -5.53,4.447 -8.752,5.53 -3.918,1.317 -8.058,1.253 -11.832,0.26 -2.645,-0.696 -5.224,-1.907 -6.862,-4.097 -1.645,-2.198 -2.178,-5.152 -2.368,-8.052 -0.337,-5.13 0.26,-10.37 0.803,-15.575 0.452,-4.326 0.868,-8.655 1.04,-12.972 0.3,-7.852 -0.197,-15.636 -1.232,-23.273 -0.173,-1.28 -0.362,-2.568 -0.257,-3.886 0.105,-1.318 0.535,-2.688 1.436,-3.705 0.832,-0.94 1.993,-1.496 3.15,-1.77 1.157,-0.274 2.33,-0.3 3.493,-0.32 2.74,-0.075 5.496,-0.24 8.195,0.006 1.703,0.156 3.373,0.475 5.073,0.643 2.838,0.28 5.78,0.133 8.627,-0.724 3.064,-0.922 5.986,-2.652 9.1,-3.127 1.277,-0.195 2.56,-0.173 3.8,0.006 1.267,0.182 2.528,0.542 3.502,1.336 0.74,0.604 1.282,1.433 1.706,2.317 0.63,1.317 1.02,2.77 1.24,4.26 0.197,1.32 0.266,2.68 0.598,3.957 0.545,2.1 1.78,3.886 3.267,5.34 1.487,1.454 3.225,2.602 4.96,3.734 1.73,1.127 3.468,2.247 5.315,3.176 0.867,0.436 1.758,0.83 2.586,1.333 0.828,0.503 1.6,1.12 2.15,1.935 0.746,1.105 1.046,2.553 0.822,3.975"
           transform="matrix(1.026883,0,0,1,-2.313437,0)"
           opacity="0.2"
           fill="url(#AR)"
           filter="url(#S)"
           id="path7942"
           style="fill:url(#AR)" /><g
           transform="translate(-410)"
           id="g7948"><path
             d="m 516.006,331.876 c -0.67,1.72 -1.627,3.327 -2.816,4.738 -2.624,3.115 -6.268,5.17 -9.896,7.02 -6.19,3.154 -12.602,5.922 -18.42,9.717 -3.898,2.542 -7.496,5.527 -10.86,8.742 -2.877,2.75 -5.606,5.687 -8.832,8.018 -3.256,2.35 -7.02,4.054 -10.99,4.65 -4.83,0.725 -9.82,-0.213 -14.3,-2.164 -3.138,-1.367 -6.156,-3.323 -7.963,-6.23 -1.814,-2.918 -2.228,-6.488 -2.233,-9.924 -0.008,-6.077 1.118,-12.1 2.178,-18.073 0.88,-4.972 1.72,-9.955 2.26,-14.975 0.983,-9.13 0.976,-18.353 0.32,-27.513 -0.1,-1.534 -0.238,-3.083 -0.008,-4.604 0.23,-1.521 0.855,-3.037 2.02,-4.04 1.077,-0.927 2.52,-1.336 3.94,-1.414 1.42,-0.078 2.834,0.147 4.24,0.352 3.313,0.484 6.652,0.865 9.89,1.717 2.043,0.537 4.033,1.26 6.072,1.81 3.403,0.92 6.966,1.36 10.467,0.952 3.77,-0.44 7.43,-1.857 11.224,-1.765 1.557,0.038 3.1,0.332 4.586,0.8 1.515,0.478 3.01,1.162 4.123,2.295 0.846,0.86 1.436,1.945 1.88,3.07 0.66,1.674 1.015,3.457 1.167,5.25 0.135,1.588 0.113,3.194 0.414,4.76 0.495,2.575 1.847,4.923 3.528,6.935 1.681,2.012 3.7,3.72 5.696,5.408 2,1.68 4.01,3.355 6.167,4.828 1.012,0.692 2.056,1.34 3.017,2.1 0.961,0.76 1.845,1.647 2.445,2.715 0.815,1.45 1.064,3.208 0.683,4.826 z"
             clip-path="url(#T)"
             fill="url(#AS)"
             id="path7944"
             style="fill:url(#AS)" /><path
             d="m 512.89,328.724 a 15.31,15.31 0 0 1 -2.571,4.26 c -2.402,2.814 -5.73,4.654 -9.038,6.31 -5.653,2.83 -11.503,5.318 -16.82,8.735 -3.554,2.284 -6.84,4.966 -9.918,7.86 -2.63,2.473 -5.125,5.116 -8.066,7.208 -2.98,2.12 -6.418,3.647 -10.037,4.18 -4.41,0.65 -8.96,-0.193 -13.058,-1.946 -2.857,-1.222 -5.617,-2.97 -7.272,-5.6 -1.646,-2.617 -2.03,-5.83 -2.04,-8.922 -0.013,-5.465 1.018,-10.87 1.99,-16.248 0.807,-4.47 1.575,-8.948 2.064,-13.463 0.89,-8.208 0.848,-16.498 0.292,-24.735 -0.093,-1.38 -0.2,-2.774 0.012,-4.14 0.212,-1.366 0.778,-2.727 1.826,-3.63 0.983,-0.847 2.303,-1.218 3.6,-1.286 1.297,-0.068 2.587,0.142 3.87,0.33 3.023,0.445 6.072,0.78 9.03,1.543 1.865,0.482 3.684,1.132 5.545,1.628 3.11,0.83 6.362,1.225 9.56,0.856 3.44,-0.397 6.787,-1.67 10.25,-1.587 1.42,0.035 2.83,0.3 4.19,0.72 1.382,0.426 2.75,1.034 3.765,2.063 0.766,0.775 1.295,1.754 1.716,2.76 0.626,1.497 1.033,3.097 1.066,4.72 0.035,1.694 -0.336,3.395 -0.106,5.073 0.186,1.363 0.763,2.648 1.5,3.81 0.737,1.162 1.634,2.21 2.523,3.26 1.717,2.03 3.44,4.097 5.593,5.655 2.452,1.774 5.362,2.81 7.895,4.467 0.755,0.494 1.486,1.052 2.018,1.78 a 4.76,4.76 0 0 1 0.624,4.339 z"
             clip-path="url(#U)"
             fill="#cd8907"
             filter="url(#V)"
             id="path7946" /></g><path
           d="m 508.793,327.925 c -0.602,1.265 -1.382,2.444 -2.31,3.49 -2.153,2.428 -5.06,4.1 -8.123,5.172 -5.042,1.767 -10.546,2.004 -15.495,4.016 -3.016,1.226 -5.73,3.073 -8.48,4.82 -2.222,1.41 -4.492,2.77 -6.932,3.756 -2.755,1.115 -5.686,1.74 -8.626,2.18 -1.87,0.28 -3.763,0.484 -5.652,0.387 -1.889,-0.097 -3.784,-0.507 -5.45,-1.4 -1.264,-0.678 -2.4,-1.653 -3.076,-2.918 -0.75,-1.406 -0.88,-3.056 -0.862,-4.65 0.046,-4.246 1.026,-8.446 0.996,-12.692 -0.026,-3.696 -0.815,-7.345 -1.042,-11.034 -0.437,-7.095 1.205,-14.313 -0.24,-21.273 -0.23,-1.114 -0.542,-2.227 -0.527,-3.365 0.008,-0.57 0.1,-1.14 0.315,-1.667 0.215,-0.527 0.563,-1.005 1.025,-1.338 0.39,-0.28 0.85,-0.45 1.323,-0.527 0.473,-0.077 0.957,-0.062 1.432,0.007 0.948,0.137 1.852,0.482 2.775,0.737 2.642,0.73 5.433,0.714 8.117,1.265 1.685,0.346 3.317,0.91 4.984,1.334 2.8,0.7 5.72,1.013 8.592,0.7 3.09,-0.335 6.107,-1.375 9.213,-1.3 1.273,0.03 2.537,0.25 3.765,0.59 1.228,0.34 2.455,0.82 3.384,1.69 0.67,0.628 1.15,1.43 1.542,2.26 0.57,1.212 0.967,2.53 0.958,3.868 -0.005,0.697 -0.12,1.388 -0.187,2.08 -0.067,0.692 -0.088,1.404 0.09,2.077 0.178,0.673 0.554,1.287 0.983,1.84 0.429,0.553 0.915,1.06 1.358,1.602 1.242,1.517 2.13,3.285 3.097,4.99 0.967,1.705 2.052,3.393 3.58,4.62 2.08,1.672 4.778,2.34 7.096,3.66 0.68,0.387 1.337,0.84 1.814,1.46 a 3.77,3.77 0 0 1 0.561,3.556 z"
           transform="matrix(1.142972,0,0,1.232305,-478.99801,-77.126193)"
           clip-path="url(#W)"
           fill="#f5c021"
           filter="url(#X)"
           id="path7950" /><path
           d="m 27.31,290.65 c 3.276,-0.887 6.066,1.597 8.442,3.472 1.535,1.31 3.753,0.98 5.637,1.042 3.12,-0.113 6.225,0.523 9.347,0.136 6.145,-0.52 12.168,-2.03 18.342,-2.3 2.95,-0.186 6.26,-0.357 8.808,1.365 1.033,0.716 2.547,3.74 3.566,2.605 -0.42,-3.178 -2.777,-6.256 -5.94,-7.102 -2.475,-0.39 -5,0.29 -7.49,0.07 -7.423,-0.177 -14.793,-1.555 -22.234,-1.16 -5.176,0.045 -10.347,-0.195 -15.515,-0.397 -2.03,-0.415 -2.747,1.39 -3.85,2.08"
           fill="url(#AT)"
           filter="url(#Y)"
           id="path7952"
           style="fill:url(#AT)" /></g><g
         class="J"
         id="g7960"><path
           d="m 361.75,209.343 c 0.002,-1.533 -7.565,-10.056 -9.8,-8.486 -2.235,1.57 -0.492,3.784 -0.296,5.498 0.196,1.714 -0.945,6.61 0.238,7.26 1.183,0.65 3.366,-2.52 5.3,-4.277 1.558,-1.415 4.544,1.54 4.546,0.006 z"
           transform="matrix(-0.095961,-0.957009,-0.774762,0.118534,259.90204,542.60667)"
           opacity="0.75"
           filter="url(#R)"
           id="path7956" /><path
           transform="matrix(-0.069919,0.957009,-0.564507,-0.118534,97.56774,-131.0171)"
           d="m 351.96,200.857 c -1.452,0.39 -1.23,3.994 -0.296,5.498 0.79,1.27 3.072,2.27 3.76,1.005 1.114,-2.056 -1.472,-7.036 -3.462,-6.503 z"
           opacity="0.25"
           filter="url(#Q)"
           id="path7958" /></g><g
         transform="translate(21,-9)"
         id="g7974"><use
           xlink:href="#Aa"
           opacity="0.35"
           fill="url(#AU)"
           filter="url(#O)"
           id="use7962"
           style="fill:url(#AU)" /><use
           xlink:href="#Aa"
           transform="matrix(1,0,0,0.722925,0,80.758477)"
           opacity="0.35"
           fill="url(#AV)"
           filter="url(#P)"
           id="use7964"
           style="fill:url(#AV)" /><path
           d="m 76.188,285.328 c -0.405,-1.104 -1.118,-2.082 -1.99,-2.87 -0.872,-0.788 -1.9,-1.392 -2.983,-1.852 -2.165,-0.92 -4.52,-1.26 -6.832,-1.696 l -6.528,-1.277 c -2.27,-0.386 -4.618,-0.632 -6.865,-0.125 -1.966,0.443 -3.784,1.46 -5.272,2.82 -1.488,1.36 -2.65,3.056 -3.485,4.9 -1.472,3.23 -1.935,6.865 -1.654,10.403 0.21,2.633 0.875,5.346 2.61,7.34 1.4,1.61 3.387,2.615 5.434,3.22 3.525,1.043 7.367,0.988 10.86,-0.155 a 28.59,28.59 0 0 0 14.33,-10.779 c 1.14,-1.65 2.112,-3.448 2.553,-5.403 0.336,-1.5 0.348,-3.08 -0.178,-4.515 z"
           class="E"
           id="path7966" /><g
           transform="translate(-310)"
           id="g7972"><use
             xlink:href="#Ab"
             clip-path="url(#L)"
             fill="url(#AW)"
             filter="url(#M)"
             id="use7968"
             style="fill:url(#AW)" /><use
             xlink:href="#Ab"
             clip-path="url(#N)"
             fill="url(#AX)"
             filter="url(#M)"
             id="use7970"
             style="fill:url(#AX)" /></g></g><path
         d="m -40.502,175.425 -16.922,21.186 c -3.533,4.38 -7.15,8.794 -9.45,13.93 -1.976,4.413 -2.91,9.207 -4.265,13.85 -1.538,5.272 -3.626,10.37 -5.97,15.336 -2.165,4.585 -4.55,9.063 -6.94,13.536 -1.738,3.254 -3.505,6.58 -4.108,10.22 -0.476,2.876 -0.2,5.844 0.534,8.666 0.734,2.822 1.9,5.51 3.238,8.106 5.667,11.075 14.17,20.622 24.242,27.925 4.57,3.314 9.467,6.18 14.602,8.526 2.782,1.27 5.714,2.404 8.772,2.457 1.53,0.026 3.074,-0.225 4.474,-0.84 1.4,-0.615 2.65,-1.604 3.483,-2.887 1.023,-1.578 1.37,-3.538 1.165,-5.407 -0.205,-1.869 -0.935,-3.653 -1.913,-5.26 -2.4,-3.923 -6.165,-6.76 -9.796,-9.573 -7.84,-6.074 -15.425,-12.48 -22.682,-19.24 -2.05,-1.91 -4.098,-3.878 -5.53,-6.284 -1.394,-2.344 -2.148,-5.014 -2.658,-7.693 -1.4,-7.35 -1.04,-15.083 1.46,-22.133 0.978,-2.758 2.27,-5.392 3.518,-8.04 2.16,-4.59 4.207,-9.266 7.05,-13.467 3.538,-5.23 8.267,-9.66 11.15,-15.278 2.434,-4.74 3.42,-10.072 4.362,-15.318 z"
         class="E"
         id="path7976" /><path
         d="m 232.33,224.27 a 33,33 0 0 0 -5.953,7.318 c -2.668,4.46 -4.24,9.468 -6.178,14.29 -1.444,3.59 -3.125,7.193 -3.327,11.056 -0.103,1.984 0.19,3.966 0.257,5.952 0.067,1.986 -0.118,4.05 -1.1,5.784 -0.813,1.45 -2.166,2.59 -3.733,3.144 a 11.07,11.07 0 0 1 5.335,3.865 c 1.115,1.5 1.828,3.254 2.796,4.85 0.787,1.298 1.753,2.5 2.943,3.445 1.19,0.945 2.61,1.62 4.117,1.813 a 7.26,7.26 0 0 0 5.765,-1.842 c -1.925,-18.036 -0.162,-36.457 5.15,-53.8 0.335,-1.095 0.687,-2.198 0.77,-3.34 0.083,-1.142 -0.13,-2.348 -0.824,-3.258 -0.37,-0.485 -0.868,-0.87 -1.43,-1.108 -0.562,-0.238 -1.186,-0.325 -1.79,-0.252 -0.604,0.073 -1.19,0.306 -1.68,0.67 -0.49,0.364 -0.882,0.857 -1.127,1.415 z"
         clip-path="url(#J)"
         transform="translate(-289,-9)"
         opacity="0.95"
         filter="url(#K)"
         class="J"
         id="path7978" /><g
         transform="translate(-219,-9)"
         clip-path="url(#F)"
         id="g7988"><path
           d="m 137.577,281.02 c 1.6,-0.663 3.398,-0.784 5.1,-0.47 1.702,0.314 3.31,1.05 4.743,2.022 2.864,1.946 4.988,4.778 7.023,7.58 4.672,6.434 9.17,13.002 13.245,19.83 3.306,5.538 6.344,11.257 10.164,16.453 2.494,3.392 5.307,6.54 7.813,9.922 2.506,3.382 4.728,7.056 5.84,11.117 1.444,5.277 0.885,11.093 -1.627,15.953 -1.767,3.42 -4.476,6.352 -7.772,8.34 -3.296,1.988 -7.17,3.014 -11.016,2.87 -6.114,-0.23 -11.7,-3.285 -17.384,-5.55 -11.58,-4.612 -24.16,-6.06 -36.097,-9.652 -3.67,-1.104 -7.276,-2.41 -10.97,-3.426 -1.64,-0.45 -3.31,-0.848 -4.86,-1.55 -1.55,-0.702 -3,-1.75 -3.862,-3.217 -0.666,-1.134 -0.948,-2.47 -0.93,-3.786 0.018,-1.316 0.326,-2.615 0.774,-3.852 0.896,-2.474 2.343,-4.714 3.32,-7.157 1.595,-3.99 1.882,-8.388 1.667,-12.68 -0.215,-4.292 -0.91,-8.545 -1.205,-12.83 -0.13,-1.914 -0.18,-3.853 0.185,-5.736 0.365,-1.883 1.176,-3.725 2.558,-5.055 1.274,-1.227 2.965,-1.955 4.696,-2.317 1.731,-0.362 3.515,-0.377 5.284,-0.338 1.769,0.039 3.54,0.134 5.304,-0.01 1.764,-0.144 3.533,-0.54 5.07,-1.418 1.46,-0.834 2.654,-2.075 3.644,-3.434 0.99,-1.359 1.79,-2.846 2.61,-4.314 0.82,-1.468 1.668,-2.932 2.742,-4.226 1.074,-1.294 2.39,-2.423 3.943,-3.067 z"
           fill="url(#AY)"
           id="path7980"
           style="fill:url(#AY)" /><path
           d="m 140.1,283.78 c 1.455,-0.586 3.094,-0.65 4.623,-0.304 1.529,0.346 2.95,1.1 4.188,2.047 2.478,1.914 4.2,4.614 5.854,7.27 3.97,6.433 7.85,12.934 11.516,19.567 2.777,4.993 5.425,10.093 8.837,14.68 2.264,3.042 4.847,5.83 7.158,8.837 2.311,3.007 4.37,6.282 5.393,9.933 1.316,4.706 0.783,9.9 -1.495,14.233 a 18.98,18.98 0 0 1 -7.186,7.513 18.5,18.5 0 0 1 -10.087,2.488 c -5.598,-0.258 -10.71,-3.054 -15.98,-4.95 -10.103,-3.666 -21.053,-4.158 -31.416,-7.02 -3.715,-1.008 -7.337,-2.353 -11.07,-3.294 -1.652,-0.417 -3.333,-0.757 -4.902,-1.42 -1.569,-0.663 -3.047,-1.69 -3.898,-3.165 -0.633,-1.097 -0.886,-2.388 -0.847,-3.654 0.039,-1.266 0.36,-2.5 0.8,-3.694 0.902,-2.367 2.32,-4.5 3.23,-6.875 1.38,-3.574 1.55,-7.504 1.294,-11.326 -0.256,-3.822 -0.92,-7.61 -1.153,-11.434 -0.104,-1.71 -0.12,-3.44 0.226,-5.116 0.346,-1.676 1.076,-3.3 2.295,-4.512 1.32,-1.31 3.14,-2.024 4.977,-2.304 1.837,-0.28 3.706,-0.158 5.555,0.007 1.849,0.165 3.705,0.373 5.56,0.262 1.855,-0.111 3.736,-0.563 5.27,-1.607 1.397,-0.945 2.446,-2.324 3.244,-3.798 0.798,-1.474 1.368,-3.055 1.976,-4.617 0.608,-1.562 1.267,-3.122 2.222,-4.5 0.955,-1.378 2.236,-2.605 3.806,-3.235"
           fill="#d99a03"
           filter="url(#G)"
           id="path7982" /><path
           d="m 138.753,281.235 c 1.41,-0.712 3.07,-0.858 4.616,-0.537 1.546,0.321 2.978,1.09 4.196,2.096 2.435,2 3.98,4.875 5.42,7.685 3.305,6.455 6.383,13.05 10.338,19.128 2.87,4.4 6.18,8.517 9.082,12.905 3.936,5.95 7.136,12.496 8.456,19.507 0.888,4.716 0.86,9.8 -1.372,14.058 -1.47,2.796 -3.85,5.1 -6.663,6.525 -2.813,1.425 -6.043,2.017 -9.19,1.734 -4.954,-0.445 -9.454,-2.925 -14.117,-4.655 -8.275,-3.07 -17.218,-3.803 -25.734,-6.12 -3.592,-0.977 -7.1,-2.235 -10.75,-3 -1.606,-0.342 -3.244,-0.59 -4.777,-1.18 -1.533,-0.59 -2.986,-1.566 -3.77,-3.01 -0.55,-1.016 -0.737,-2.205 -0.654,-3.357 0.083,-1.152 0.42,-2.275 0.865,-3.342 0.888,-2.134 2.2,-4.09 2.9,-6.296 1.013,-3.242 0.597,-6.757 -0.164,-10.068 -0.761,-3.311 -1.857,-6.56 -2.194,-9.94 -0.15,-1.505 -0.147,-3.04 0.19,-4.515 0.337,-1.475 1.027,-2.892 2.11,-3.95 1.393,-1.362 3.344,-2.04 5.283,-2.23 1.939,-0.19 3.892,0.07 5.82,0.35 1.928,0.28 3.868,0.6 5.815,0.5 1.947,-0.1 3.928,-0.61 5.453,-1.824 1.508,-1.2 2.456,-2.987 3,-4.836 0.544,-1.849 0.72,-3.782 0.943,-5.696 0.223,-1.914 0.5,-3.846 1.23,-5.63 0.73,-1.784 1.96,-3.428 3.68,-4.297 z"
           transform="matrix(1,0,0,0.982048,0,3.958973)"
           fill="#f5bd0c"
           filter="url(#H)"
           id="path7984" /><path
           d="m 156.407,295.97 c 2.606,4.713 4.196,10.122 6.78,14.875 2.378,4.372 5.084,8.874 7.5,12.906 1.075,1.795 3.583,4.555 6.12,8.837 2.298,3.88 4.618,9.297 5.917,11.116 -0.746,-2.13 -2.28,-7.847 -4.11,-11.923 -1.7,-3.81 -3.7,-5.982 -4.927,-8.03 -2.416,-4.032 -5.017,-7.656 -7.5,-11.5 -3.425,-5.302 -6.036,-11.235 -9.78,-16.28 z"
           fill="url(#AZ)"
           filter="url(#I)"
           id="path7986"
           style="fill:url(#AZ)" /></g></g><g
       transform="matrix(0.03014133,0,0,0.03014133,114.41722,106.56061)"
       fill="none"
       fill-rule="evenodd"
       id="g8272"><circle
         r="50.167"
         cy="237.62801"
         cx="269.52899"
         fill="#00d8ff"
         id="circle8262" /><g
         stroke="#00d8ff"
         stroke-width="24"
         id="g8270"><path
           d="m 269.53,135.628 c 67.356,0 129.928,9.665 177.107,25.907 56.844,19.57 91.794,49.233 91.794,76.093 0,27.99 -37.04,59.503 -98.083,79.728 -46.15,15.29 -106.88,23.272 -170.818,23.272 -65.554,0 -127.63,-7.492 -174.3,-23.44 -59.046,-20.182 -94.61,-52.103 -94.61,-79.56 0,-26.642 33.37,-56.076 89.415,-75.616 47.355,-16.51 111.472,-26.384 179.486,-26.384 z"
           id="path8264" /><path
           d="m 180.736,186.922 c 33.65,-58.348 73.28,-107.724 110.92,-140.48 45.35,-39.466 88.507,-54.922 111.774,-41.505 24.248,13.983 33.042,61.814 20.067,124.796 -9.8,47.618 -33.234,104.212 -65.176,159.6 -32.75,56.788 -70.25,106.82 -107.377,139.272 -46.98,41.068 -92.4,55.93 -116.185,42.213 -23.08,-13.3 -31.906,-56.92 -20.834,-115.233 9.355,-49.27 32.832,-109.745 66.8,-168.664 z"
           id="path8266" /><path
           d="M 180.82,289.482 C 147.075,231.2 124.1,172.195 114.51,123.227 c -11.544,-59 -3.382,-104.11 19.864,-117.566 24.224,-14.024 70.055,2.244 118.14,44.94 36.356,32.28 73.688,80.837 105.723,136.173 32.844,56.733 57.46,114.21 67.036,162.582 12.117,61.213 2.31,107.984 -21.453,121.74 -23.057,13.348 -65.25,-0.784 -110.24,-39.5 -38.013,-32.71 -78.682,-83.253 -112.76,-142.115 z"
           id="path8268" /></g></g><g
       style="fill:#010101"
       id="g8295"
       transform="matrix(0.26458333,0,0,0.26458333,176.07329,152.41094)"><path
         d="M 63.988,31.295 C 63.814,20.595 57.848,10.177 48.618,4.691 41.346,0.162 32.16,-1.057 23.886,1.033 11.433,4.168 1.505,15.446 0.243,28.3 c -1.568,12.14 4.572,24.766 15.065,30.992 10.276,6.444 24.253,6.183 34.3,-0.6 9.057,-5.878 14.674,-16.6 14.37,-27.388 z M 33.77,59.25 C 19.227,60.687 5.163,48.365 4.77,33.778 3.67,21.935 11.475,10.222 22.622,6.303 38.254,0.033 57.456,11.615 59.067,28.38 61.593,43.444 49.053,58.78 33.77,59.25 Z M 24.2,30.38 45.23,13.18 33.866,30.423 c -3.222,0 -6.444,0 -9.666,-0.044 z m 5.913,3.18 9.666,0.044 -21.03,17.243 z"
         id="path8286" /></g><path
       d="m 78.066057,174.20153 c 0.56435,-2.25769 1.97564,-3.38667 4.23333,-3.38667 3.38667,0 3.81,2.54 5.50334,2.96334 1.12897,0.28231 2.11666,-0.14103 2.96333,-1.27 -0.56436,2.25769 -1.97564,3.38666 -4.23333,3.38666 -3.38667,0 -3.81,-2.54 -5.50334,-2.96333 -1.12898,-0.28231 -2.11666,0.14102 -2.96333,1.27 z m -4.23333,5.08 c 0.56435,-2.25769 1.97564,-3.38667 4.23333,-3.38667 3.38667,0 3.81,2.54 5.50333,2.96334 1.12898,0.28231 2.11667,-0.14103 2.96334,-1.27 -0.56436,2.25769 -1.97565,3.38666 -4.23334,3.38666 -3.38666,0 -3.81,-2.54 -5.50333,-2.96333 -1.12898,-0.28231 -2.11667,0.14102 -2.96333,1.27 z"
       fill="url(#A)"
       fill-rule="evenodd"
       id="path8304"
       style="fill:url(#A-6);stroke-width:0.264583" /><path
       d="m 147.47266,60.553976 v 4.44233 h 9.39041 v -8.88494 h -9.39041 z m 7.56741,-0.354 c 0.23842,0.0564 0.42035,0.15659 0.58732,0.32013 0.0866,0.0875 0.21465,0.24682 0.22507,0.28486 0.003,0.0111 -0.40539,0.2707 -0.65291,0.41605 -0.009,0.006 -0.0447,-0.031 -0.0851,-0.0875 -0.12075,-0.16659 -0.24738,-0.23836 -0.44119,-0.25099 -0.28464,-0.0183 -0.46951,0.12272 -0.46658,0.35816 0,0.0691 0.0103,0.10995 0.0402,0.16659 0.0626,0.12272 0.179,0.19602 0.54404,0.34567 0.67227,0.27348 0.95984,0.45395 1.13855,0.71077 0.19954,0.28625 0.24444,0.74326 0.10886,1.0831 -0.14906,0.36954 -0.51865,0.62054 -1.03878,0.70383 -0.16095,0.0268 -0.54257,0.0226 -0.7154,-0.007 -0.37707,-0.0634 -0.73478,-0.23975 -0.95545,-0.47103 -0.0866,-0.0902 -0.25485,-0.32582 -0.24444,-0.34289 0.004,-0.006 0.0433,-0.0282 0.0866,-0.0522 l 0.34875,-0.19019 0.26997,-0.14812 0.0566,0.0791 c 0.0789,0.11425 0.25192,0.2707 0.35624,0.3229 0.2996,0.14951 0.71101,0.12827 0.91363,-0.0437 0.0866,-0.0747 0.12222,-0.15229 0.12222,-0.26654 0,-0.103 -0.0132,-0.14812 -0.07,-0.22558 -0.0731,-0.0986 -0.22213,-0.18186 -0.64557,-0.35539 -0.48447,-0.19741 -0.6931,-0.32012 -0.88384,-0.51476 -0.11034,-0.11286 -0.21466,-0.29333 -0.25794,-0.44423 -0.0358,-0.12549 -0.0447,-0.44006 -0.0164,-0.56695 0.0998,-0.44423 0.45307,-0.75172 0.96293,-0.84335 0.1655,-0.0296 0.5502,-0.0183 0.71247,0.0197 z m -2.20448,0.37066 0.003,0.36371 h -1.22218 v 3.28594 h -0.86447 v -3.28594 h -1.22219 v -0.35677 l 0.0103,-0.36649 c 0.004,-0.006 0.74827,-0.008 1.65002,-0.007 l 1.64107,0.004 z"
       fill="#007acc"
       id="path8314"
       style="stroke-width:0.264583" /></g><style
     id="style7539"><![CDATA[.B{color-interpolation-filters:sRGB}.C{fill-opacity:1}.D{stroke:none}.E{fill:#020204}.F{stroke-linejoin:miter}.G{stroke-opacity:1}.H{stroke-width:1}.I{stroke-linecap:butt}.J{fill:#7c7c7c}]]></style></svg>
