<?xml version="1.0" encoding="utf-8"?><svg version="1.1" id="Layer_1" xmlns="http://www.w3.org/2000/svg" xmlns:xlink="http://www.w3.org/1999/xlink" x="0px" y="0px" viewBox="0 0 122.88 83.55" style="enable-background:new 0 0 122.88 83.55" xml:space="preserve"><g><path d="M52.23,66.35c3.6-1.59,7.17-2.48,10.68-2.55c3.47-0.07,6.83,0.67,10.08,2.34c2-2.9,5.35-4.81,9.15-4.81 c6.13,0,11.11,4.97,11.11,11.11c0,6.14-4.97,11.11-11.11,11.11c-6.14,0-11.11-4.97-11.11-11.11c0-0.24,0.01-0.49,0.02-0.73 c-2.59-1.49-5.28-2.14-8.05-2.09c-2.86,0.05-5.85,0.87-8.97,2.31c0.01,0.17,0.01,0.33,0.01,0.5c0,6.14-4.97,11.11-11.11,11.11 c-6.13,0-11.11-4.97-11.11-11.11c0-6.14,4.97-11.11,11.11-11.11C46.83,61.33,50.25,63.33,52.23,66.35L52.23,66.35z M34.42,4.6 c5.56-6.68,7.7-4.62,14.47-2.79c8.46,2.28,16.72,2.84,25.5,0.32c6.53-1.88,9.39-4.49,15.28,2.08C94,9.03,96.69,16.78,98.3,21.64 c1.93,5.81,3.25,11.77,4.04,17.85H22.73C25.57,25.21,28.98,12.38,34.42,4.6L34.42,4.6z M4.48,43.46H118.4 c2.47,0,4.48,2.02,4.48,4.48v0c0,2.47-2.02,4.48-4.48,4.48H4.48C2.02,52.42,0,50.41,0,47.94v0C0,45.48,2.02,43.46,4.48,43.46 L4.48,43.46z"/></g></svg>